<?xml version="1.0" encoding="utf-8"?>
<!-- Generator: Adobe Illustrator 16.0.0, SVG Export Plug-In . SVG Version: 6.00 Build 0)  -->
<!DOCTYPE svg PUBLIC "-//W3C//DTD SVG 1.1//EN" "http://www.w3.org/Graphics/SVG/1.1/DTD/svg11.dtd">
<svg viewBox="0 0 20 20" fill="none" xmlns="http://www.w3.org/2000/svg">
  <defs>
    <linearGradient id="buttonGradient" gradientUnits="userSpaceOnUse" x1="10" y1="0" x2="10" y2="20">
      <stop offset="0" stop-color="#8B1A1A"/>
      <stop offset="0.1812" stop-color="#9E1F1F"/>
      <stop offset="0.4765" stop-color="#B22424"/>
      <stop offset="0.8471" stop-color="#D42929"/>
      <stop offset="1" stop-color="#E62E2E"/>
    </linearGradient>
    <linearGradient id="shineGradient" gradientUnits="userSpaceOnUse" x1="9.999" y1="2" x2="9.999" y2="16.318">
      <stop offset="0" stop-color="#F7F7F8" stop-opacity="0.5"/>
      <stop offset="0.8" stop-color="#141414" stop-opacity="0"/>
    </linearGradient>
    <linearGradient id="letterGradient" gradientUnits="userSpaceOnUse" x1="10" y1="4.5098" x2="10" y2="15.4902">
      <stop offset="0" stop-color="#EB6557"/>
      <stop offset="0.0614" stop-color="#E65B4C"/>
      <stop offset="0.2105" stop-color="#DD4838"/>
      <stop offset="0.3578" stop-color="#D73C2B"/>
      <stop offset="0.5" stop-color="#D53827"/>
      <stop offset="0.6422" stop-color="#D73C2B"/>
      <stop offset="0.7895" stop-color="#DD4838"/>
      <stop offset="0.9386" stop-color="#E65B4C"/>
      <stop offset="1" stop-color="#EB6557"/>
    </linearGradient>
  </defs>
  <g>
    <circle fill="url(#buttonGradient)" cx="10" cy="10" r="10"/>
    <circle fill="url(#shineGradient)" cx="9.999" cy="10" r="7.999"/>
    <path fill="url(#letterGradient)" d="M14.949,11.072c-0.109-0.303-0.256-0.57-0.439-0.793c-0.186-0.225-0.406-0.412-0.66-0.557
      c-0.104-0.061-0.213-0.115-0.324-0.166c0.279-0.158,0.523-0.363,0.73-0.617c0.316-0.393,0.479-0.844,0.479-1.346
      c0-0.951-0.35-1.715-1.037-2.268c-0.674-0.543-1.662-0.816-2.936-0.816H4.889v10.98h5.344c1.621,0,2.848-0.301,3.646-0.893
      c0.818-0.605,1.232-1.434,1.232-2.463C15.111,11.732,15.057,11.373,14.949,11.072z M7.816,10.836h2.662
      c0.549,0,0.979,0.098,1.279,0.289c0.273,0.174,0.406,0.453,0.406,0.85c0,0.379-0.143,0.682-0.438,0.932
      c-0.301,0.254-0.734,0.383-1.285,0.383H7.816V10.836z M10.422,8.637H7.816V6.742h2.455c0.572,0,0.982,0.08,1.219,0.236
      c0.213,0.143,0.316,0.375,0.316,0.711C11.807,8.096,11.662,8.637,10.422,8.637z"/>
  </g>
</svg>