<?xml version="1.0" encoding="utf-8"?>
<svg viewBox="0 0 70 70" fill="none" xmlns="http://www.w3.org/2000/svg">
  <defs>
    <linearGradient id="buttonGradient" gradientUnits="userSpaceOnUse" x1="35" y1="0" x2="35" y2="70">
      <stop offset="0" stop-color="#4A4A4A"/>
      <stop offset="0.1812" stop-color="#535353"/>
      <stop offset="0.4765" stop-color="#5C5C5C"/>
      <stop offset="0.8471" stop-color="#666666"/>
      <stop offset="1" stop-color="#707070"/>
    </linearGradient>
    <linearGradient id="shineGradient" gradientUnits="userSpaceOnUse" x1="35" y1="5" x2="35" y2="65">
      <stop offset="0" stop-color="#F7F7F8" stop-opacity="0.5"/>
      <stop offset="0.8" stop-color="#141414" stop-opacity="0"/>
    </linearGradient>
    <linearGradient id="textGradient" gradientUnits="userSpaceOnUse" x1="35" y1="20" x2="35" y2="50">
      <stop offset="0" stop-color="#FFFFFF"/>
      <stop offset="0.5" stop-color="#E0E0E0"/>
      <stop offset="1" stop-color="#CCCCCC"/>
    </linearGradient>
  </defs>
  <g>
    <path d="m56.672 2.5-44.882 1e-7s-2.0505 0-3.2555 1.2051-1.6863 3.0343-1.6863 3.0343l-2.0347 13.234s-1.1311 7.3486 1.1085 14.097 7.4142 11.764 7.4142 11.764l12.878 12.878s4.2196 4.2196 9.7327 6.5032 11.481 2.2836 11.481 2.2836h13.304s2.5229 0 4.0219-2.0294c1.4989-2.0294 0.75709-4.4408 0.75709-4.4408l-5.9851-19.449s-0.9992-3.248-1.2466-6.6371 0.26954-6.7478 0.26954-6.7478l3.066-19.935s0.34964-2.2717-1.1469-4.0161c-1.4965-1.7445-3.7949-1.7445-3.7949-1.7445z" 
          fill="url(#buttonGradient)" 
          stroke="#000000" 
          stroke-width="2"/>
    <path d="m56.672 2.5-44.882 1e-7s-2.0505 0-3.2555 1.2051-1.6863 3.0343-1.6863 3.0343l-2.0347 13.234s-1.1311 7.3486 1.1085 14.097 7.4142 11.764 7.4142 11.764l12.878 12.878s4.2196 4.2196 9.7327 6.5032 11.481 2.2836 11.481 2.2836h13.304s2.5229 0 4.0219-2.0294c1.4989-2.0294 0.75709-4.4408 0.75709-4.4408l-5.9851-19.449s-0.9992-3.248-1.2466-6.6371 0.26954-6.7478 0.26954-6.7478l3.066-19.935s0.34964-2.2717-1.1469-4.0161c-1.4965-1.7445-3.7949-1.7445-3.7949-1.7445z" 
          fill="url(#shineGradient)" 
          fill-opacity="0.5"/>
    <text x="35" 
          y="45" 
          fill="url(#textGradient)" 
          font-family="sans-serif" 
          font-size="33.333px" 
          font-weight="bold"
          text-anchor="middle" 
          letter-spacing="-5px">RT</text>
  </g>
</svg>
