<svg xmlns="http://www.w3.org/2000/svg" width="244" height="244" viewBox="26 86 80 80" fill="none">
<path d="M45.0541 135.202L44.8796 145.407L52.3076 138.464C53.074 137.698 54.121 137.266 55.206 137.266H64.9937H65.1151H74.9027C75.9877 137.266 77.0348 137.698 77.8011 138.464L85.5326 145.467L84.7359 135.202H45.0541V135.202Z" fill="#C9C9C9"/>
<path d="M57.2847 107.311L53.9311 103.912C53.4379 103.411 52.7247 103.138 51.9887 103.168C49.8036 103.267 47.148 104.056 45.365 104.671C44.0751 105.118 42.2314 106.962 41.7382 108.161C41.7079 108.237 41.2071 109.807 41.1692 109.883L57.4744 107.478C57.4137 107.425 57.3454 107.379 57.2847 107.311Z" fill="#C8C6C4"/>
<path d="M73.1272 107.281L76.4808 103.881C76.974 103.381 77.6872 103.108 78.4232 103.138C80.6083 103.237 83.2639 104.026 85.0469 104.64C86.3368 105.088 88.1805 106.932 88.6737 108.13C88.704 108.206 89.2048 109.777 89.2427 109.853L72.9224 107.448C72.9906 107.387 73.0665 107.341 73.1272 107.281Z" fill="#C8C6C4"/>
<path d="M73.9088 105.718C74.7813 104.762 76.0104 104.216 77.2775 104.216H77.4217C80.2214 104.307 83.575 105.354 85.8892 106.219C87.8467 106.947 89.4021 108.48 90.1532 110.422C93.1882 118.267 94.8877 127.812 95.472 131.553C95.8134 133.73 95.7527 135.855 95.2823 137.866C93.6207 145.02 88.522 145.574 87.0045 145.574C86.4734 145.574 86.1168 145.514 86.0181 145.498L85.396 145.385L75.9725 135.961C75.6083 135.597 75.1303 135.4 74.6144 135.4H55.7219C55.206 135.4 54.728 135.597 54.3638 135.961L44.9403 145.385L44.3181 145.498C44.2195 145.514 43.8629 145.574 43.3318 145.574C41.8143 145.574 36.7156 145.02 35.054 137.866C34.5836 135.855 34.5229 133.73 34.8643 131.553C35.4485 127.835 37.1405 118.336 40.1527 110.506C40.919 108.51 42.5199 106.932 44.5306 106.188C46.7461 105.369 49.9631 104.36 52.6946 104.223C52.778 104.216 52.8539 104.216 52.9373 104.216C54.2879 104.216 55.5853 104.785 56.4958 105.779" fill="url(#paint0_linear_1109_4366)"/>
<path d="M86.0331 108.274C83.8556 107.462 80.5399 106.4 77.8692 106.317C77.0953 106.294 76.3517 106.628 75.8206 107.197L71.7689 111.613C71.2985 112.121 70.6384 112.409 69.948 112.409H65.2287H65.1073H60.3879C59.6975 112.409 59.0374 112.121 58.567 111.613L54.576 107.265C53.9842 106.62 53.142 106.279 52.2695 106.317C49.667 106.446 46.5031 107.455 44.3862 108.236C42.8536 108.805 41.6396 109.997 41.0554 111.522C38.0205 119.405 35.9946 129.003 35.3497 133.13C35.0462 135.05 35.0766 137.015 35.5166 138.912C37.2314 146.279 44.7353 145.687 44.7353 145.687L55.5017 135.505C56.268 134.739 54.5153 135.505 55.6079 135.505L65.0238 135.331V135.293L74.7508 135.399C75.8358 135.399 73.9844 134.633 74.7508 135.399L85.411 145.543C85.411 145.543 93.3094 146.788 94.5234 138.813C94.8193 136.894 94.9938 134.951 94.6903 133.032C94.0378 128.889 92.3155 119.329 89.2578 111.431C88.6887 109.981 87.5127 108.828 86.0331 108.274Z" fill="url(#paint1_linear_1109_4366)"/>
<path d="M80.8513 113.988C82.079 113.988 83.0744 112.993 83.0744 111.765C83.0744 110.537 82.079 109.542 80.8513 109.542C79.6235 109.542 78.6282 110.537 78.6282 111.765C78.6282 112.993 79.6235 113.988 80.8513 113.988Z" fill="#F5AE33"/>
<path d="M86.7314 117.994C87.9592 117.994 88.9545 116.999 88.9545 115.771C88.9545 114.543 87.9592 113.548 86.7314 113.548C85.5036 113.548 84.5083 114.543 84.5083 115.771C84.5083 116.999 85.5036 117.994 86.7314 117.994Z" fill="#9FCECC"/>
<path d="M75.798 117.994C77.0258 117.994 78.0211 116.999 78.0211 115.771C78.0211 114.543 77.0258 113.548 75.798 113.548C74.5703 113.548 73.575 114.543 73.575 115.771C73.575 116.999 74.5703 117.994 75.798 117.994Z" fill="#9FCECC"/>
<path d="M80.8056 122.607C82.0334 122.607 83.0287 121.612 83.0287 120.384C83.0287 119.157 82.0334 118.161 80.8056 118.161C79.5778 118.161 78.5825 119.157 78.5825 120.384C78.5825 121.612 79.5778 122.607 80.8056 122.607Z" fill="#F5AE33"/>
<path d="M49.1586 120.483C51.5639 120.483 53.5137 118.533 53.5137 116.128C53.5137 113.722 51.5639 111.772 49.1586 111.772C46.7533 111.772 44.8035 113.722 44.8035 116.128C44.8035 118.533 46.7533 120.483 49.1586 120.483Z" fill="#B4B0AB"/>
<path d="M60.6233 124.822H59.2197C58.1878 124.822 57.3532 123.988 57.3532 122.956V121.552C57.3532 121.15 57.0269 120.824 56.6248 120.824H55.2818C54.8797 120.824 54.5535 121.15 54.5535 121.552V122.956C54.5535 123.988 53.7189 124.822 52.687 124.822H51.2833C50.8812 124.822 50.5549 125.149 50.5549 125.551V126.894C50.5549 127.296 50.8812 127.622 51.2833 127.622H52.687C53.7189 127.622 54.5535 128.457 54.5535 129.489V130.892C54.5535 131.294 54.8797 131.621 55.2818 131.621H56.6248C57.0269 131.621 57.3532 131.294 57.3532 130.892V129.489C57.3532 128.457 58.1878 127.622 59.2197 127.622H60.6233C61.0255 127.622 61.3517 127.296 61.3517 126.894V125.551C61.3517 125.141 61.0255 124.822 60.6233 124.822Z" fill="#B4B0AB"/>
<path d="M70.6234 130.399C73.0287 130.399 74.9786 128.449 74.9786 126.044C74.9786 123.639 73.0287 121.689 70.6234 121.689C68.2182 121.689 66.2683 123.639 66.2683 126.044C66.2683 128.449 68.2182 130.399 70.6234 130.399Z" fill="#B4B0AB"/>
<defs>
  <linearGradient id="paint0_linear_1109_4366" x1="65.4522" y1="169.943" x2="64.8695" y2="95.8699" gradientUnits="userSpaceOnUse">
    <stop offset="0.1328" stop-color="#FAF9F8"/>
    <stop offset="0.1543" stop-color="#F6F5F4"/>
    <stop offset="0.2691" stop-color="#E5E4E2"/>
    <stop offset="0.3913" stop-color="#DBD9D7"/>
    <stop offset="0.5325" stop-color="#D8D6D4"/>
    <stop offset="0.6821" stop-color="#DDDBDA"/>
    <stop offset="0.8737" stop-color="#ECEBEA"/>
    <stop offset="1" stop-color="#FAF9F8"/>
  </linearGradient>
  <linearGradient id="paint1_linear_1109_4366" x1="65.2598" y1="168.799" x2="64.7057" y2="98.3737" gradientUnits="userSpaceOnUse">
    <stop stop-color="#C8C6C4"/>
    <stop offset="0.0698" stop-color="#CBC9C7"/>
    <stop offset="0.5974" stop-color="#DBD9D7"/>
    <stop offset="1" stop-color="#E1DFDD"/>
  </linearGradient>
</defs>
</svg>