<svg id="xbox" version="1.1" xmlns="http://www.w3.org/2000/svg" viewBox="0.917 0.331 2500 2500" width="2000" height="2000" style="display: block;"> <g clip-path="url(#clip0_1046_64)"> <path d="M0 0C818.73 0 1637.46 0 2481 0C2481 818.73 2481 1637.46 2481 2481C1662.27 2481 843.54 2481 0 2481C0 1662.27 0 843.54 0 0Z" fill="none"></path> <path d="M874.845 649.881C896.288 649.04 896.288 649.04 904.001 655C905.034 655.767 906.068 656.534 907.133 657.324C910.83 660.126 914.416 663.056 918.001 666C920.032 667.659 922.066 669.316 924.1 670.972C925.392 672.026 926.682 673.083 927.968 674.144C929.207 675.16 930.46 676.158 931.728 677.137C934.001 679 934.001 679 936.199 681.254C946.065 690.37 956.945 689.267 969.755 689.156C972.19 689.168 974.624 689.183 977.059 689.203C982.342 689.236 987.624 689.24 992.908 689.221C1000.76 689.191 1008.62 689.213 1016.48 689.245C1030.51 689.3 1044.54 689.303 1058.58 689.284C1070.86 689.267 1083.14 689.267 1095.42 689.282C1097.07 689.284 1098.72 689.286 1100.37 689.288C1102.85 689.291 1105.33 689.294 1107.82 689.297C1130.91 689.325 1154 689.336 1177.09 689.309C1177.96 689.308 1178.83 689.307 1179.73 689.306C1186.79 689.297 1193.86 689.288 1200.92 689.279C1228.48 689.245 1256.04 689.263 1283.6 689.324C1314.58 689.392 1345.56 689.424 1376.54 689.401C1379.84 689.398 1383.14 689.396 1386.45 689.394C1387.26 689.393 1388.07 689.393 1388.91 689.392C1401.18 689.384 1413.46 689.404 1425.73 689.438C1439.68 689.476 1453.64 689.476 1467.6 689.424C1475.41 689.396 1483.21 689.398 1491.02 689.444C1496.85 689.475 1502.69 689.449 1508.52 689.4C1510.88 689.389 1513.24 689.396 1515.59 689.424C1530.85 689.8 1530.85 689.8 1543.76 682.604C1545.58 680.793 1547.28 678.92 1549 677C1550.24 675.946 1551.5 674.919 1552.81 673.941C1554.33 672.763 1554.33 672.763 1555.88 671.562C1556.44 671.123 1557.01 670.684 1557.59 670.232C1560.73 667.791 1563.84 665.32 1566.9 662.781C1582.62 649.784 1582.62 649.784 1592.97 649.906C1594.13 649.918 1595.28 649.93 1596.47 649.942C1597.64 649.961 1598.8 649.98 1600 650C1601.55 650.017 1601.55 650.017 1603.13 650.034C1665.98 650.931 1729.87 662.057 1787 689C1787.93 689.434 1788.86 689.868 1789.81 690.316C1814.53 701.987 1836.49 716.99 1857 735C1857.99 735.867 1858.98 736.735 1860 737.629C1864.76 741.866 1869.24 746.151 1873.34 751.031C1875.09 753.1 1876.91 755.074 1878.75 757.062C1890.65 770.481 1900.14 785.531 1907.56 801.812C1910.41 808.051 1913.35 813.299 1917.92 818.479C1925.9 828.146 1930.61 839.431 1935.25 850.937C1935.96 852.671 1936.67 854.405 1937.38 856.138C1939.94 862.417 1942.47 868.708 1945 875C1945.53 876.312 1946.06 877.624 1946.59 878.936C1969.28 935.274 1991.81 991.701 2012.7 1048.74C2014.23 1052.91 2015.78 1057.07 2017.36 1061.22C2020.08 1068.35 2022.57 1075.54 2024.91 1082.8C2025.98 1086.1 2027.12 1089.28 2028.49 1092.48C2030.53 1097.24 2032.08 1102.13 2033.66 1107.06C2034.97 1111.08 2036.38 1115.01 2037.97 1118.92C2040.4 1124.9 2042.37 1131.01 2044.36 1137.14C2045.72 1141.32 2047.14 1145.43 2048.82 1149.49C2051.71 1156.59 2054.11 1163.86 2056.58 1171.11C2057.43 1173.6 2058.28 1176.09 2059.14 1178.57C2062.21 1187.58 2065.17 1196.61 2067.95 1205.71C2068.84 1208.48 2069.81 1211.13 2070.94 1213.81C2072.82 1218.34 2074.29 1222.94 2075.74 1227.62C2077.82 1234.26 2079.92 1240.9 2082.08 1247.52C2082.34 1248.3 2082.59 1249.09 2082.86 1249.9C2083.38 1251.52 2083.91 1253.14 2084.44 1254.76C2085.85 1259.09 2087.26 1263.42 2088.67 1267.75C2089.09 1269.05 2089.09 1269.05 2089.52 1270.38C2092 1277.99 2094.47 1285.61 2096.93 1293.24C2097.54 1295.11 2098.15 1296.99 2098.75 1298.87C2101.24 1306.56 2103.64 1314.27 2106 1322C2106.44 1323.44 2106.44 1323.44 2106.89 1324.9C2107.74 1327.68 2108.59 1330.47 2109.44 1333.25C2109.85 1334.59 2109.85 1334.59 2110.27 1335.96C2132.79 1409.88 2132.79 1409.88 2141.23 1444.94C2142.32 1449.42 2143.52 1453.86 2144.81 1458.29C2147.52 1467.71 2149.95 1477.19 2152.38 1486.69C2152.62 1487.64 2152.86 1488.58 2153.11 1489.56C2156.79 1503.97 2160.21 1518.4 2163.33 1532.94C2164.26 1537.18 2165.25 1541.4 2166.24 1545.63C2176.82 1590.76 2185.24 1636.26 2185.19 1682.75C2185.19 1683.6 2185.19 1684.45 2185.19 1685.32C2185.17 1700.29 2184.58 1715.1 2183 1730C2182.9 1730.93 2182.81 1731.87 2182.71 1732.83C2177.69 1779.39 2161.61 1825.62 2133 1863C2132 1864.31 2132 1864.31 2130.99 1865.65C2125.7 1872.44 2119.93 1878.77 2114 1885C2113.46 1885.57 2112.92 1886.14 2112.37 1886.72C2104.66 1894.78 2096.67 1902.09 2087.71 1908.73C2086.07 1909.95 2084.44 1911.2 2082.82 1912.44C2057.09 1931.87 2019.24 1953.39 1986 1951C1982.64 1950.17 1979.98 1948.75 1977 1947C1976.03 1946.49 1975.05 1945.97 1974.05 1945.44C1954.24 1934.71 1936.26 1920.38 1919 1906C1918.5 1905.58 1917.99 1905.16 1917.47 1904.73C1909.6 1898.19 1902.01 1891.41 1894.53 1884.42C1893.14 1883.13 1891.74 1881.87 1890.32 1880.61C1883.04 1874.08 1876.11 1867.22 1869.19 1860.31C1868.69 1859.81 1868.19 1859.32 1867.67 1858.8C1862.48 1853.64 1857.39 1848.43 1852.63 1842.87C1849.73 1839.54 1846.66 1836.38 1843.63 1833.19C1838.52 1827.79 1833.67 1822.32 1829.04 1816.51C1826.94 1813.92 1824.74 1811.46 1822.5 1809C1817.79 1803.83 1813.4 1798.44 1809 1793C1807.54 1791.23 1806.08 1789.46 1804.63 1787.69C1799.32 1781.2 1794.15 1774.61 1789 1768C1788.2 1766.97 1787.4 1765.94 1786.57 1764.89C1779.21 1755.39 1772.09 1745.71 1765 1736C1764.46 1735.26 1763.92 1734.52 1763.36 1733.76C1751.93 1718.1 1740.58 1702.32 1730.19 1685.94C1712.98 1658.93 1689.81 1636.86 1662 1621C1661.01 1620.43 1661.01 1620.43 1660.01 1619.85C1622.63 1598.53 1581.1 1590.32 1538.43 1590.5C1535.76 1590.49 1533.08 1590.49 1530.4 1590.48C1524.63 1590.47 1518.86 1590.47 1513.09 1590.48C1504.5 1590.5 1495.92 1590.49 1487.33 1590.48C1472 1590.47 1456.66 1590.47 1441.32 1590.49C1427.9 1590.5 1414.48 1590.51 1401.05 1590.5C1400.16 1590.5 1399.27 1590.5 1398.35 1590.5C1394.72 1590.5 1391.1 1590.5 1387.47 1590.5C1353.51 1590.49 1319.56 1590.51 1285.6 1590.54C1255.48 1590.56 1225.36 1590.56 1195.24 1590.55C1187.52 1590.55 1179.81 1590.55 1172.09 1590.55C1171.14 1590.55 1170.19 1590.55 1169.21 1590.55C1143.99 1590.54 1118.76 1590.54 1093.53 1590.55C1090.82 1590.56 1088.1 1590.56 1085.39 1590.56C1083.58 1590.56 1081.78 1590.56 1079.98 1590.56C1066.57 1590.57 1053.16 1590.56 1039.75 1590.56C1024.49 1590.56 1009.24 1590.56 993.979 1590.58C985.457 1590.59 976.935 1590.59 968.412 1590.59C962.702 1590.58 956.992 1590.59 951.281 1590.6C948.04 1590.61 944.798 1590.61 941.557 1590.6C878.461 1590.45 819.994 1610.69 774.63 1655.34C770.743 1659.3 767.378 1663.61 764.001 1668C763.269 1668.93 762.538 1669.85 761.784 1670.81C755.643 1678.64 750.044 1686.73 744.587 1695.05C736.829 1706.88 728.961 1718.58 720.528 1729.94C718.863 1732.19 717.212 1734.44 715.563 1736.7C707.85 1747.24 699.996 1757.67 692.001 1768C691.536 1768.6 691.071 1769.2 690.592 1769.82C679.622 1783.98 668.17 1797.75 656.46 1811.3C654.99 1813.01 653.533 1814.73 652.079 1816.45C645.275 1824.49 638.201 1832.23 630.97 1839.89C629.513 1841.45 628.07 1843.03 626.635 1844.61C619.704 1852.26 612.53 1859.63 605.22 1866.91C603.301 1868.82 601.388 1870.74 599.475 1872.66C593.484 1878.66 587.469 1884.52 581.001 1890C579.225 1891.62 577.454 1893.24 575.688 1894.87C570.285 1899.8 564.696 1904.42 559.001 1909C557.892 1909.91 556.784 1910.82 555.676 1911.74C505.254 1953.07 505.254 1953.07 482.641 1951.66C441.554 1947.01 400.109 1916.54 371.001 1889C369.607 1887.69 369.607 1887.69 368.184 1886.35C361.036 1879.42 354.943 1871.96 349.001 1864C348.574 1863.43 348.147 1862.87 347.708 1862.28C331.773 1841.05 319.835 1817.3 311.678 1792.06C311.105 1790.32 310.489 1788.59 309.864 1786.86C292.384 1738.43 292.727 1681.54 299.001 1631C299.095 1630.23 299.19 1629.45 299.288 1628.66C302.482 1602.76 307.432 1577.49 313.496 1552.12C314.494 1547.92 315.45 1543.71 316.411 1539.5C317.346 1535.41 318.296 1531.33 319.247 1527.24C320.083 1523.64 320.915 1520.05 321.747 1516.45C326.024 1497.99 330.436 1479.57 335.388 1461.28C336.118 1458.56 336.838 1455.85 337.559 1453.14C340.686 1441.4 343.926 1429.7 347.373 1418.05C349.557 1410.63 351.582 1403.17 353.563 1395.69C355.794 1387.28 358.194 1378.96 360.874 1370.69C362.525 1365.57 364.028 1360.44 365.438 1355.25C369.463 1340.49 373.969 1325.88 378.88 1311.4C380.459 1306.71 381.897 1302 383.251 1297.25C385.939 1287.83 389.107 1278.57 392.259 1269.3C394.439 1262.85 396.493 1256.4 398.372 1249.86C401.253 1239.87 404.659 1230.07 408.063 1220.25C409.286 1216.71 410.506 1213.18 411.723 1209.64C412.014 1208.8 412.304 1207.95 412.603 1207.09C414.552 1201.39 416.379 1195.68 418.077 1189.91C419.016 1186.95 420.09 1184.07 421.193 1181.16C422.629 1177.32 423.933 1173.42 425.251 1169.53C425.7 1168.21 425.7 1168.21 426.158 1166.86C427.107 1164.08 428.054 1161.29 429.001 1158.5C430.249 1154.82 431.499 1151.15 432.751 1147.47C433.032 1146.64 433.313 1145.81 433.603 1144.95C435.103 1140.54 436.665 1136.17 438.315 1131.82C439.296 1129.22 440.224 1126.6 441.153 1123.98C444.542 1114.46 447.983 1104.97 451.421 1095.47C452.565 1092.31 453.707 1089.15 454.85 1085.99C455.589 1083.95 456.328 1081.91 457.067 1079.86C457.403 1078.94 457.738 1078.01 458.084 1077.05C459.055 1074.37 460.028 1071.68 461.001 1069C461.509 1067.6 461.509 1067.6 462.028 1066.16C464.008 1060.71 466.006 1055.26 468.04 1049.83C468.318 1049.08 468.596 1048.34 468.882 1047.57C488.371 995.479 508.306 943.545 529.346 892.054C530.901 888.247 532.446 884.437 533.989 880.625C536.205 875.152 538.434 869.685 540.677 864.223C541.589 862.002 542.499 859.78 543.406 857.557C555.634 827.69 555.634 827.69 565.438 815.312C569.288 810.366 571.916 805.324 574.501 799.625C588.133 769.573 612.554 741.693 639.173 722.336C641.176 720.872 643.15 719.372 645.126 717.871C680.241 691.502 722.048 674.905 764.376 664.25C766.049 663.827 766.049 663.827 767.756 663.396C782.051 659.883 796.499 657.499 811.063 655.437C811.821 655.329 812.58 655.221 813.361 655.11C826.212 653.29 839.044 651.83 852.001 651C853.26 650.915 853.26 650.915 854.545 650.829C859.498 650.505 864.449 650.256 869.41 650.088C871.222 650.026 873.034 649.956 874.845 649.881Z" fill="#FEFEFE"></path> <path d="M1095 1190C1095.58 1190.46 1096.16 1190.92 1096.75 1191.39C1129.89 1218.07 1152.58 1257.35 1157.71 1299.83C1161.34 1345.4 1149.55 1390 1119.65 1425.1C1109.05 1436.69 1098.22 1447.43 1085 1456C1084.34 1456.43 1083.68 1456.86 1083 1457.3C1046.49 1480.66 1002.25 1488.51 959.824 1479.84C931.83 1473.61 907.682 1460.51 886 1442C885.195 1441.32 884.391 1440.64 883.562 1439.94C853.528 1413.96 835.083 1374.71 831.167 1335.51C830.066 1319.02 829.985 1302.09 834 1286C834.171 1285.26 834.343 1284.52 834.52 1283.75C844.338 1241.32 869.783 1204.34 906.719 1180.91C964.715 1145.29 1040.97 1146.82 1095 1190Z" fill="#FDFDFE"></path> <path d="M874.845 649.881C896.288 649.04 896.288 649.04 904.001 655C905.034 655.767 906.068 656.534 907.133 657.324C910.83 660.126 914.416 663.056 918.001 666C920.032 667.659 922.066 669.316 924.1 670.972C925.392 672.026 926.682 673.083 927.968 674.144C929.207 675.16 930.46 676.158 931.728 677.137C934.001 679 934.001 679 936.199 681.254C946.065 690.37 956.945 689.267 969.755 689.156C972.19 689.168 974.624 689.183 977.059 689.203C982.342 689.236 987.624 689.24 992.908 689.221C1000.76 689.191 1008.62 689.213 1016.48 689.245C1030.51 689.3 1044.54 689.303 1058.58 689.284C1070.86 689.267 1083.14 689.267 1095.42 689.282C1097.07 689.284 1098.72 689.286 1100.37 689.288C1102.85 689.291 1105.33 689.294 1107.82 689.297C1130.91 689.325 1154 689.336 1177.09 689.309C1177.96 689.308 1178.83 689.307 1179.73 689.306C1186.79 689.297 1193.86 689.288 1200.92 689.279C1228.48 689.245 1256.04 689.263 1283.6 689.324C1314.58 689.392 1345.56 689.424 1376.54 689.401C1379.84 689.398 1383.14 689.396 1386.45 689.394C1387.26 689.393 1388.07 689.393 1388.91 689.392C1401.18 689.384 1413.46 689.404 1425.73 689.438C1439.68 689.476 1453.64 689.476 1467.6 689.424C1475.41 689.396 1483.21 689.398 1491.02 689.444C1496.85 689.475 1502.69 689.449 1508.52 689.4C1510.88 689.389 1513.24 689.396 1515.59 689.424C1530.85 689.8 1530.85 689.8 1543.76 682.604C1545.58 680.793 1547.28 678.92 1549 677C1550.24 675.946 1551.5 674.919 1552.81 673.941C1554.33 672.763 1554.33 672.763 1555.88 671.562C1556.44 671.123 1557.01 670.684 1557.59 670.232C1560.73 667.791 1563.84 665.32 1566.9 662.781C1582.62 649.784 1582.62 649.784 1592.97 649.906C1594.13 649.918 1595.28 649.93 1596.47 649.942C1597.64 649.961 1598.8 649.98 1600 650C1601.55 650.017 1601.55 650.017 1603.13 650.034C1665.98 650.931 1729.87 662.057 1787 689C1787.93 689.434 1788.86 689.868 1789.81 690.316C1814.53 701.987 1836.49 716.99 1857 735C1857.99 735.867 1858.98 736.735 1860 737.629C1864.76 741.866 1869.24 746.151 1873.34 751.031C1875.09 753.1 1876.91 755.074 1878.75 757.062C1890.65 770.481 1900.14 785.531 1907.56 801.812C1910.41 808.051 1913.35 813.299 1917.92 818.479C1925.9 828.146 1930.61 839.431 1935.25 850.937C1935.96 852.671 1936.67 854.405 1937.38 856.138C1939.94 862.417 1942.47 868.708 1945 875C1945.53 876.312 1946.06 877.624 1946.59 878.936C1969.28 935.274 1991.81 991.701 2012.7 1048.74C2014.23 1052.91 2015.78 1057.07 2017.36 1061.22C2020.08 1068.35 2022.57 1075.54 2024.91 1082.8C2025.98 1086.1 2027.12 1089.28 2028.49 1092.48C2030.53 1097.24 2032.08 1102.13 2033.66 1107.06C2034.97 1111.08 2036.38 1115.01 2037.97 1118.92C2040.4 1124.9 2042.37 1131.01 2044.36 1137.14C2045.72 1141.32 2047.14 1145.43 2048.82 1149.49C2051.71 1156.59 2054.11 1163.86 2056.58 1171.11C2057.43 1173.6 2058.28 1176.09 2059.14 1178.57C2062.21 1187.58 2065.17 1196.61 2067.95 1205.71C2068.84 1208.48 2069.81 1211.13 2070.94 1213.81C2072.82 1218.34 2074.29 1222.94 2075.74 1227.62C2077.82 1234.26 2079.92 1240.9 2082.08 1247.52C2082.34 1248.3 2082.59 1249.09 2082.86 1249.9C2083.38 1251.52 2083.91 1253.14 2084.44 1254.76C2085.85 1259.09 2087.26 1263.42 2088.67 1267.75C2089.09 1269.05 2089.09 1269.05 2089.52 1270.38C2092 1277.99 2094.47 1285.61 2096.93 1293.24C2097.54 1295.11 2098.15 1296.99 2098.75 1298.87C2101.24 1306.56 2103.64 1314.27 2106 1322C2106.44 1323.44 2106.44 1323.44 2106.89 1324.9C2107.74 1327.68 2108.59 1330.47 2109.44 1333.25C2109.85 1334.59 2109.85 1334.59 2110.27 1335.96C2132.79 1409.88 2132.79 1409.88 2141.23 1444.94C2142.32 1449.42 2143.52 1453.86 2144.81 1458.29C2147.52 1467.71 2149.95 1477.19 2152.38 1486.69C2152.62 1487.64 2152.86 1488.58 2153.11 1489.56C2156.79 1503.97 2160.21 1518.4 2163.33 1532.94C2164.26 1537.18 2165.25 1541.4 2166.24 1545.63C2176.82 1590.76 2185.24 1636.26 2185.19 1682.75C2185.19 1683.6 2185.19 1684.45 2185.19 1685.32C2185.17 1700.29 2184.58 1715.1 2183 1730C2182.9 1730.93 2182.81 1731.87 2182.71 1732.83C2177.69 1779.39 2161.61 1825.62 2133 1863C2132 1864.31 2132 1864.31 2130.99 1865.65C2125.7 1872.44 2119.93 1878.77 2114 1885C2113.46 1885.57 2112.92 1886.14 2112.37 1886.72C2104.66 1894.78 2096.67 1902.09 2087.71 1908.73C2086.07 1909.95 2084.44 1911.2 2082.82 1912.44C2057.09 1931.87 2019.24 1953.39 1986 1951C1982.64 1950.17 1979.98 1948.75 1977 1947C1976.03 1946.49 1975.05 1945.97 1974.05 1945.44C1954.24 1934.71 1936.26 1920.38 1919 1906C1918.5 1905.58 1917.99 1905.16 1917.47 1904.73C1909.6 1898.19 1902.01 1891.41 1894.53 1884.42C1893.14 1883.13 1891.74 1881.87 1890.32 1880.61C1883.04 1874.08 1876.11 1867.22 1869.19 1860.31C1868.69 1859.81 1868.19 1859.32 1867.67 1858.8C1862.48 1853.64 1857.39 1848.43 1852.63 1842.87C1849.73 1839.54 1846.66 1836.38 1843.63 1833.19C1838.52 1827.79 1833.67 1822.32 1829.04 1816.51C1826.94 1813.92 1824.74 1811.46 1822.5 1809C1817.79 1803.83 1813.4 1798.44 1809 1793C1807.54 1791.23 1806.08 1789.46 1804.63 1787.69C1799.32 1781.2 1794.15 1774.61 1789 1768C1788.2 1766.97 1787.4 1765.94 1786.57 1764.89C1779.21 1755.39 1772.09 1745.71 1765 1736C1764.46 1735.26 1763.92 1734.52 1763.36 1733.76C1751.93 1718.1 1740.58 1702.32 1730.19 1685.94C1712.98 1658.93 1689.81 1636.86 1662 1621C1661.01 1620.43 1661.01 1620.43 1660.01 1619.85C1622.63 1598.53 1581.1 1590.32 1538.43 1590.5C1535.76 1590.49 1533.08 1590.49 1530.4 1590.48C1524.63 1590.47 1518.86 1590.47 1513.09 1590.48C1504.5 1590.5 1495.92 1590.49 1487.33 1590.48C1472 1590.47 1456.66 1590.47 1441.32 1590.49C1427.9 1590.5 1414.48 1590.51 1401.05 1590.5C1400.16 1590.5 1399.27 1590.5 1398.35 1590.5C1394.72 1590.5 1391.1 1590.5 1387.47 1590.5C1353.51 1590.49 1319.56 1590.51 1285.6 1590.54C1255.48 1590.56 1225.36 1590.56 1195.24 1590.55C1187.52 1590.55 1179.81 1590.55 1172.09 1590.55C1171.14 1590.55 1170.19 1590.55 1169.21 1590.55C1143.99 1590.54 1118.76 1590.54 1093.53 1590.55C1090.82 1590.56 1088.1 1590.56 1085.39 1590.56C1083.58 1590.56 1081.78 1590.56 1079.98 1590.56C1066.57 1590.57 1053.16 1590.56 1039.75 1590.56C1024.49 1590.56 1009.24 1590.56 993.979 1590.58C985.457 1590.59 976.935 1590.59 968.412 1590.59C962.702 1590.58 956.992 1590.59 951.281 1590.6C948.04 1590.61 944.798 1590.61 941.557 1590.6C878.461 1590.45 819.994 1610.69 774.63 1655.34C770.743 1659.3 767.378 1663.61 764.001 1668C763.269 1668.93 762.538 1669.85 761.784 1670.81C755.643 1678.64 750.044 1686.73 744.587 1695.05C736.829 1706.88 728.961 1718.58 720.528 1729.94C718.863 1732.19 717.212 1734.44 715.563 1736.7C707.85 1747.24 699.996 1757.67 692.001 1768C691.536 1768.6 691.071 1769.2 690.592 1769.82C679.622 1783.98 668.17 1797.75 656.46 1811.3C654.99 1813.01 653.533 1814.73 652.079 1816.45C645.275 1824.49 638.201 1832.23 630.97 1839.89C629.513 1841.45 628.07 1843.03 626.635 1844.61C619.704 1852.26 612.53 1859.63 605.22 1866.91C603.301 1868.82 601.388 1870.74 599.475 1872.66C593.484 1878.66 587.469 1884.52 581.001 1890C579.225 1891.62 577.454 1893.24 575.688 1894.87C570.285 1899.8 564.696 1904.42 559.001 1909C557.892 1909.91 556.784 1910.82 555.676 1911.74C505.254 1953.07 505.254 1953.07 482.641 1951.66C441.554 1947.01 400.109 1916.54 371.001 1889C369.607 1887.69 369.607 1887.69 368.184 1886.35C361.036 1879.42 354.943 1871.96 349.001 1864C348.574 1863.43 348.147 1862.87 347.708 1862.28C331.773 1841.05 319.835 1817.3 311.678 1792.06C311.105 1790.32 310.489 1788.59 309.864 1786.86C292.384 1738.43 292.727 1681.54 299.001 1631C299.095 1630.23 299.19 1629.45 299.288 1628.66C302.482 1602.76 307.432 1577.49 313.496 1552.12C314.494 1547.92 315.45 1543.71 316.411 1539.5C317.346 1535.41 318.296 1531.33 319.247 1527.24C320.083 1523.64 320.915 1520.05 321.747 1516.45C326.024 1497.99 330.436 1479.57 335.388 1461.28C336.118 1458.56 336.838 1455.85 337.559 1453.14C340.686 1441.4 343.926 1429.7 347.373 1418.05C349.557 1410.63 351.582 1403.17 353.563 1395.69C355.794 1387.28 358.194 1378.96 360.874 1370.69C362.525 1365.57 364.028 1360.44 365.438 1355.25C369.463 1340.49 373.969 1325.88 378.88 1311.4C380.459 1306.71 381.897 1302 383.251 1297.25C385.939 1287.83 389.107 1278.57 392.259 1269.3C394.439 1262.85 396.493 1256.4 398.372 1249.86C401.253 1239.87 404.659 1230.07 408.063 1220.25C409.286 1216.71 410.506 1213.18 411.723 1209.64C412.014 1208.8 412.304 1207.95 412.603 1207.09C414.552 1201.39 416.379 1195.68 418.077 1189.91C419.016 1186.95 420.09 1184.07 421.193 1181.16C422.629 1177.32 423.933 1173.42 425.251 1169.53C425.7 1168.21 425.7 1168.21 426.158 1166.86C427.107 1164.08 428.054 1161.29 429.001 1158.5C430.249 1154.82 431.499 1151.15 432.751 1147.47C433.032 1146.64 433.313 1145.81 433.603 1144.95C435.103 1140.54 436.665 1136.17 438.315 1131.82C439.296 1129.22 440.224 1126.6 441.153 1123.98C444.542 1114.46 447.983 1104.97 451.421 1095.47C452.565 1092.31 453.707 1089.15 454.85 1085.99C455.589 1083.95 456.328 1081.91 457.067 1079.86C457.403 1078.94 457.738 1078.01 458.084 1077.05C459.055 1074.37 460.028 1071.68 461.001 1069C461.509 1067.6 461.509 1067.6 462.028 1066.16C464.008 1060.71 466.006 1055.26 468.04 1049.83C468.318 1049.08 468.596 1048.34 468.882 1047.57C488.371 995.479 508.306 943.545 529.346 892.054C530.901 888.247 532.446 884.437 533.989 880.625C536.205 875.152 538.434 869.685 540.677 864.223C541.589 862.002 542.499 859.78 543.406 857.557C555.634 827.69 555.634 827.69 565.438 815.312C569.288 810.366 571.916 805.324 574.501 799.625C588.133 769.573 612.554 741.693 639.173 722.336C641.176 720.872 643.15 719.372 645.126 717.871C680.241 691.502 722.048 674.905 764.376 664.25C766.049 663.827 766.049 663.827 767.756 663.396C782.051 659.883 796.499 657.499 811.063 655.437C811.821 655.329 812.58 655.221 813.361 655.11C826.212 653.29 839.044 651.83 852.001 651C853.26 650.915 853.26 650.915 854.545 650.829C859.498 650.505 864.449 650.256 869.41 650.088C871.222 650.026 873.034 649.956 874.845 649.881ZM769.001 713C768.029 713.209 767.057 713.419 766.056 713.635C751.85 716.746 737.897 720.726 724.001 725C723.119 725.27 722.238 725.54 721.33 725.819C676.197 739.842 631.361 761.25 596.489 793.699C594.329 795.696 592.125 797.605 589.876 799.5C583.149 805.379 577.465 812.255 571.938 819.25C570.807 820.681 570.807 820.681 569.653 822.14C561.619 833.364 556.33 845.721 551.188 858.437C550.454 860.232 549.72 862.027 548.985 863.822C547.04 868.577 545.108 873.337 543.178 878.098C541.627 881.919 540.067 885.736 538.508 889.553C527.765 915.853 517.374 942.282 507.164 968.793C505.009 974.388 502.846 979.98 500.669 985.566C489.99 1012.98 479.726 1040.55 469.536 1068.15C467.616 1073.34 465.684 1078.54 463.747 1083.73C456.103 1104.21 456.103 1104.21 448.801 1124.81C447.367 1128.97 445.897 1133.11 444.419 1137.25C439.867 1150 435.36 1162.75 431.121 1175.61C428.482 1183.6 425.759 1191.56 423.018 1199.52C412.226 1230.87 401.642 1262.3 391.925 1294C390.704 1297.96 389.448 1301.92 388.188 1305.87C385.011 1315.9 381.953 1325.96 378.905 1336.02C377.988 1339.04 377.065 1342.06 376.141 1345.08C373.384 1354.1 370.639 1363.11 368.087 1372.19C367.213 1375.26 366.32 1378.32 365.415 1381.37C362.136 1392.47 359.01 1403.58 356.126 1414.79C354.677 1420.42 353.191 1426.03 351.626 1431.62C351.431 1432.32 351.236 1433.02 351.035 1433.74C350.054 1437.25 349.07 1440.75 348.086 1444.26C343.946 1459.03 339.978 1473.8 336.526 1488.75C335.736 1492.13 334.903 1495.5 334.063 1498.87C333.824 1499.83 333.824 1499.83 333.581 1500.81C332.657 1504.48 331.695 1508.15 330.7 1511.8C326.373 1527.81 322.882 1543.97 319.451 1560.19C318.423 1565.04 317.371 1569.88 316.298 1574.72C311.086 1598.31 307.378 1621.96 305.001 1646C304.903 1646.93 304.806 1647.87 304.706 1648.83C303.686 1659.99 303.758 1671.18 303.751 1682.37C303.75 1683.46 303.749 1684.55 303.748 1685.66C303.764 1711.47 305.743 1736.68 311.001 1762C311.251 1763.23 311.251 1763.23 311.506 1764.48C318.94 1799.9 335.048 1834.96 358.001 1863C358.817 1864.02 359.633 1865.04 360.473 1866.09C371.572 1879.75 384.117 1892.37 398.33 1902.77C399.982 1903.99 401.613 1905.23 403.243 1906.47C425.446 1923.14 457.734 1942.75 486.251 1943.31C488.115 1943.37 488.115 1943.37 490.016 1943.43C497.852 1943.03 504.936 1938.08 511.438 1934.06C512.208 1933.59 512.978 1933.11 513.772 1932.62C527.702 1923.92 540.628 1913.92 553.257 1903.44C555.712 1901.41 558.204 1899.43 560.688 1897.44C565.372 1893.61 569.824 1889.56 574.236 1885.42C576.997 1882.83 579.792 1880.31 582.664 1877.84C587.169 1873.91 591.406 1869.74 595.63 1865.5C596.423 1864.71 597.216 1863.92 598.034 1863.1C599.7 1861.44 601.364 1859.77 603.028 1858.1C605.556 1855.57 608.09 1853.04 610.624 1850.51C612.251 1848.89 613.878 1847.26 615.505 1845.63C616.627 1844.51 616.627 1844.51 617.772 1843.37C621.838 1839.28 625.742 1835.11 629.497 1830.74C631.725 1828.16 634.052 1825.68 636.376 1823.19C640.724 1818.49 644.813 1813.63 648.829 1808.64C650.938 1806.08 653.13 1803.63 655.376 1801.19C659.438 1796.73 663.156 1792.07 666.848 1787.31C669.781 1783.53 672.786 1779.84 675.876 1776.19C681.546 1769.43 686.862 1762.42 692.185 1755.39C694.088 1752.88 696.008 1750.4 697.93 1747.91C705.04 1738.69 711.921 1729.39 718.423 1719.73C721.627 1714.98 724.934 1710.33 728.376 1705.75C733.069 1699.48 737.324 1692.96 741.563 1686.37C749.646 1673.86 758.227 1662.31 768.541 1651.53C769.526 1650.5 770.505 1649.46 771.48 1648.42C808.069 1609.49 863.744 1585.98 916.891 1583.89C924.874 1583.7 932.857 1583.73 940.841 1583.75C943.538 1583.74 946.235 1583.74 948.932 1583.74C954.769 1583.73 960.606 1583.73 966.444 1583.73C975.124 1583.74 983.805 1583.74 992.485 1583.73C1007.99 1583.72 1023.5 1583.72 1039.01 1583.73C1052.58 1583.73 1066.15 1583.73 1079.72 1583.73C1080.62 1583.73 1081.52 1583.73 1082.45 1583.73C1086.11 1583.73 1089.77 1583.73 1093.43 1583.73C1127.74 1583.72 1162.05 1583.73 1196.35 1583.74C1226.81 1583.75 1257.26 1583.75 1287.72 1583.74C1321.96 1583.73 1356.21 1583.72 1390.45 1583.73C1394.11 1583.73 1397.76 1583.73 1401.41 1583.73C1402.76 1583.73 1402.76 1583.73 1404.14 1583.73C1417.7 1583.73 1431.26 1583.73 1444.82 1583.73C1460.24 1583.72 1475.67 1583.72 1491.09 1583.73C1499.71 1583.74 1508.34 1583.74 1516.96 1583.73C1522.73 1583.73 1528.5 1583.73 1534.27 1583.74C1537.55 1583.74 1540.83 1583.74 1544.11 1583.74C1561.09 1583.71 1577.46 1584.36 1594.13 1587.87C1595.38 1588.14 1595.38 1588.14 1596.67 1588.4C1631.57 1595.76 1667.23 1609.82 1694 1634C1694.86 1634.76 1695.71 1635.52 1696.59 1636.3C1698.29 1637.82 1699.98 1639.35 1701.66 1640.88C1703.8 1642.82 1705.98 1644.69 1708.19 1646.56C1712.2 1650.08 1715.6 1653.9 1719 1658C1719.62 1658.75 1719.62 1658.75 1720.25 1659.51C1727.61 1668.41 1734.31 1677.59 1740.62 1687.26C1742.99 1690.89 1745.39 1694.51 1747.78 1698.12C1748.24 1698.82 1748.7 1699.52 1749.18 1700.24C1754.28 1707.95 1759.56 1715.53 1765 1723C1765.79 1724.08 1765.79 1724.08 1766.59 1725.19C1786.87 1753.05 1808.01 1780.22 1830.54 1806.3C1832.01 1808.01 1833.47 1809.73 1834.92 1811.45C1840.72 1818.31 1846.67 1824.97 1852.84 1831.5C1855.94 1834.78 1858.97 1838.09 1861.95 1841.47C1867.89 1848.09 1874.19 1854.34 1880.48 1860.61C1882.57 1862.69 1884.64 1864.77 1886.72 1866.85C1888.06 1868.2 1889.41 1869.54 1890.75 1870.89C1891.36 1871.5 1891.97 1872.11 1892.6 1872.74C1896.36 1876.48 1900.24 1880.03 1904.25 1883.49C1906.48 1885.41 1908.64 1887.39 1910.81 1889.37C1916.06 1894.11 1921.5 1898.57 1927 1903C1928.15 1903.94 1929.29 1904.87 1930.43 1905.81C1942.76 1915.87 1955.64 1924.97 1969.06 1933.5C1969.84 1933.99 1970.61 1934.48 1971.41 1934.99C1981.65 1941.42 1989.66 1945 2002 1943C2044.07 1932.96 2087.3 1906.26 2115 1873C2115.78 1872.13 2116.57 1871.25 2117.38 1870.36C2136.46 1848.92 2149.68 1823.58 2160 1797C2160.35 1796.11 2160.7 1795.22 2161.05 1794.3C2163.72 1787.23 2165.69 1780.08 2167.5 1772.75C2167.8 1771.53 2168.1 1770.3 2168.42 1769.04C2175.17 1741.14 2177.42 1713.6 2177.38 1684.94C2177.38 1683.72 2177.37 1682.5 2177.37 1681.24C2177.33 1659.93 2176.17 1639.07 2173 1618C2172.9 1617.31 2172.8 1616.63 2172.69 1615.92C2171.09 1605.22 2169.14 1594.6 2167 1584C2166.84 1583.19 2166.67 1582.38 2166.51 1581.54C2160.2 1550.36 2152.55 1519.52 2144.71 1488.7C2143.15 1482.56 2141.6 1476.42 2140.08 1470.28C2139.76 1469.02 2139.45 1467.75 2139.12 1466.45C2138.53 1464.06 2137.94 1461.66 2137.34 1459.26C2135.5 1451.85 2133.46 1444.54 2131.24 1437.24C2129.72 1432.16 2128.44 1427.01 2127.13 1421.87C2124.87 1413.09 2122.36 1404.42 2119.67 1395.76C2117.52 1388.79 2115.51 1381.78 2113.56 1374.75C2108.77 1357.48 2103.97 1340.18 2098.08 1323.26C2096.63 1319.06 2095.37 1314.83 2094.17 1310.56C2092.18 1303.58 2090.09 1296.64 2087.93 1289.72C2087.55 1288.48 2087.17 1287.24 2086.77 1285.97C2082.47 1272.2 2077.98 1258.48 2073.47 1244.78C2072.3 1241.21 2071.13 1237.65 2069.96 1234.08C2064.16 1216.4 2058.22 1198.78 2052.11 1181.21C2050.59 1176.81 2049.08 1172.42 2047.58 1168.02C2043.58 1156.35 2039.39 1144.75 2035.15 1133.17C2032.01 1124.57 2028.92 1115.97 2025.94 1107.31C2017.84 1083.86 2009.02 1060.67 2000.31 1037.44C1999.86 1036.24 1999.41 1035.04 1998.95 1033.8C1991.08 1012.81 1983.15 991.83 1975 970.937C1974.68 970.103 1974.35 969.268 1974.01 968.408C1960.59 934.015 1946.85 899.734 1932.88 865.562C1932.4 864.4 1932.4 864.4 1931.92 863.215C1911.72 813.759 1877.51 781.367 1830.88 756.027C1829.15 755.079 1827.43 754.101 1825.72 753.121C1783.38 729.431 1733.98 715.699 1686.31 708C1684.93 707.771 1684.93 707.771 1683.52 707.539C1681.51 707.21 1679.51 706.885 1677.5 706.564C1674.94 706.151 1672.38 705.728 1669.82 705.297C1658.14 703.358 1646.45 701.93 1634.68 700.747C1631.72 700.446 1628.76 700.127 1625.8 699.806C1585.21 695.583 1544.36 695.699 1503.6 695.736C1495.95 695.743 1488.29 695.737 1480.63 695.732C1465.64 695.721 1450.65 695.722 1435.66 695.728C1422.54 695.733 1409.42 695.734 1396.3 695.732C1395.42 695.732 1394.55 695.732 1393.64 695.732C1390.09 695.731 1386.53 695.73 1382.97 695.73C1349.7 695.724 1316.44 695.729 1283.17 695.74C1253.74 695.749 1224.3 695.748 1194.86 695.739C1161.65 695.728 1128.43 695.724 1095.22 695.73C1091.67 695.731 1088.12 695.731 1084.57 695.732C1083.69 695.732 1082.82 695.732 1081.92 695.732C1068.82 695.735 1055.72 695.732 1042.62 695.727C1027.7 695.721 1012.78 695.723 997.854 695.734C990.264 695.739 982.673 695.741 975.083 695.734C905.844 695.675 836.898 698.215 769.001 713Z" fill="#387AAC"></path> <path d="M1524 1159C1524.79 1159.2 1525.59 1159.4 1526.4 1159.6C1538.39 1162.7 1549.19 1167 1560 1173C1561.62 1173.87 1561.62 1173.87 1563.27 1174.75C1582.5 1185.41 1598.73 1202.24 1610 1221C1610.4 1221.67 1610.81 1222.33 1611.22 1223.02C1628.66 1252.4 1634.36 1288.74 1626 1322C1625.83 1322.69 1625.66 1323.38 1625.48 1324.09C1619.51 1347.56 1608.38 1367.24 1592 1385C1591.31 1385.76 1590.63 1386.52 1589.92 1387.3C1569.4 1408.89 1537.09 1424.68 1507.27 1426.19C1503.91 1426.25 1500.55 1426.28 1497.19 1426.26C1495.13 1426.25 1493.08 1426.26 1491.02 1426.27C1455.26 1426.31 1422.58 1411.6 1397.25 1386.63C1383.07 1372.21 1372.38 1355.25 1366 1336C1365.79 1335.37 1365.57 1334.74 1365.35 1334.09C1360.62 1320.13 1358.66 1307.35 1358.75 1292.56C1358.74 1291.25 1358.73 1289.93 1358.73 1288.58C1358.74 1280.2 1359.43 1272.23 1361 1264C1361.21 1262.89 1361.21 1262.89 1361.43 1261.76C1368.51 1227.34 1390.35 1196.72 1419.56 1177.44C1450.24 1157.93 1488.39 1150.04 1524 1159Z" fill="#FDFEFE"></path> <path d="M835 900.001C835.79 900.568 836.58 901.135 837.395 901.719C851.297 912.232 863.037 925.087 872 940.001C872.403 940.666 872.806 941.332 873.221 942.018C891.489 972.794 896.012 1009.95 887.348 1044.61C882.089 1063.82 873.054 1081.92 860 1097C859.573 1097.5 859.145 1098.01 858.705 1098.52C842.464 1117.53 821.658 1131.23 798 1139.31C797.338 1139.54 796.676 1139.77 795.993 1140.01C783.472 1144.06 770.964 1145.49 757.871 1145.34C755.671 1145.31 753.472 1145.32 751.271 1145.32C743.331 1145.31 735.765 1144.78 728 1143C727.312 1142.86 726.624 1142.72 725.915 1142.57C705.607 1138.38 685.558 1128.76 670 1115C669.148 1114.26 668.296 1113.51 667.418 1112.75C664.915 1110.53 662.45 1108.28 660 1106C659.395 1105.45 658.791 1104.9 658.168 1104.33C642.253 1089.24 632.783 1069.54 626 1049C625.493 1047.52 625.493 1047.52 624.977 1046C621.318 1034.68 620.681 1023.39 620.75 1011.56C620.742 1010.25 620.735 1008.93 620.727 1007.58C620.789 976.239 631.815 946.865 652 923.001C652.654 922.227 652.654 922.227 653.32 921.439C674.916 896.236 707.092 877.973 740.52 875.243C774.458 873.143 807.179 879.531 835 900.001Z" fill="#FDFEFE"></path> <path id="xbox-RT" d="M1592.31 507.625C1593.67 507.649 1595.02 507.672 1596.38 507.692C1600.25 507.76 1604.13 507.877 1608 508C1608.94 508.024 1609.88 508.048 1610.85 508.072C1682.64 509.963 1759.03 531.184 1816 576C1816.88 576.682 1817.75 577.364 1818.65 578.067C1847.19 600.817 1873.51 631.152 1886 666C1886.19 668.75 1886.19 668.75 1886 671C1885.67 671.33 1885.34 671.66 1885 672C1879.59 671.659 1875.89 670.099 1871.44 667.188C1870.11 666.36 1868.78 665.536 1867.45 664.715C1866.73 664.274 1866.02 663.833 1865.28 663.379C1832.14 643.366 1796.11 628.654 1759.65 615.932C1757.24 615.085 1754.85 614.214 1752.45 613.328C1742.02 609.49 1731.42 606.519 1720.67 603.703C1718.21 603.055 1715.75 602.392 1713.29 601.723C1708.54 600.436 1703.77 599.207 1699 598C1698.11 597.774 1697.22 597.547 1696.31 597.314C1644.39 584.25 1591 578.879 1537.61 577.342C1536.61 577.31 1535.62 577.279 1534.59 577.246C1533.29 577.21 1533.29 577.21 1531.96 577.174C1530 577 1530 577 1529 576C1528.44 572.483 1528.94 571.098 1530.84 568.039C1531.72 566.893 1532.61 565.756 1533.5 564.625C1534.52 563.29 1535.53 561.953 1536.54 560.613C1537.1 559.881 1537.65 559.148 1538.22 558.393C1541.53 553.942 1544.66 549.371 1547.81 544.813C1548.49 543.84 1549.17 542.867 1549.87 541.864C1553.24 537.02 1556.57 532.158 1559.86 527.254C1560.47 526.348 1561.09 525.441 1561.72 524.507C1562.87 522.807 1564.01 521.1 1565.13 519.382C1572.57 508.469 1579.38 507.242 1592.31 507.625Z" fill="#FDFEFE"></path> <path id="xbox-LT" d="M879.57 507.649C881.118 507.633 882.665 507.605 884.212 507.567C900.101 507.184 900.101 507.184 905.428 511.385C908.427 514.464 910.907 517.756 913.312 521.312C914.145 522.503 914.145 522.503 914.994 523.718C916.678 526.135 918.341 528.566 920 531C920.952 532.38 921.905 533.761 922.859 535.14C924.657 537.745 926.446 540.355 928.23 542.968C932.183 548.742 936.231 554.449 940.273 560.16C940.725 560.799 941.176 561.438 941.641 562.097C942.565 563.39 943.501 564.674 944.449 565.949C947.961 570.704 947.961 570.704 948.375 573.875C948 576 948 576 947 577C943.984 577.196 940.985 577.332 937.965 577.429C936.037 577.501 934.108 577.573 932.18 577.646C931.162 577.683 930.143 577.72 929.093 577.758C908.965 578.502 889.019 579.751 869 582C867.423 582.171 867.423 582.171 865.814 582.347C841.619 585.017 817.597 589.154 793.826 594.379C790.996 595.001 788.162 595.608 785.328 596.214C774.712 598.521 764.326 601.259 753.953 604.484C750.707 605.491 747.453 606.439 744.172 607.328C695.915 620.421 647.875 640.894 605.379 667.168C597.257 672.176 597.257 672.176 594 673C593.01 672.34 592.02 671.68 591 671C591.486 664.622 593.711 659.648 596.5 653.937C596.951 653.007 597.401 652.076 597.866 651.118C601.709 643.328 605.953 636.072 611 629C611.684 628.035 611.684 628.035 612.383 627.052C619.015 617.789 626.054 609.174 634 601C634.631 600.343 635.261 599.687 635.911 599.01C645.057 589.518 654.354 580.776 665 573C666.151 572.141 667.302 571.283 668.453 570.425C728.099 526.445 806.462 508.226 879.57 507.649Z" fill="#FDFEFE"></path> <path id="xbox-X" d="M1637 956.001C1650.3 966.222 1659.49 980.479 1663 997.001C1664.48 1018.08 1662.41 1037.13 1648.14 1053.77C1636.92 1066.21 1622.19 1075.82 1605.18 1077.24C1583.74 1078.21 1566.82 1074.63 1550.19 1060.19C1536.96 1047.57 1529.14 1030.69 1528.71 1012.39C1528.55 993.927 1533.64 977.853 1546.69 964.274C1547.46 963.524 1548.22 962.773 1549 962.001C1549.7 961.292 1550.4 960.583 1551.12 959.852C1574.75 937.259 1611.14 937.7 1637 956.001Z" fill="#FEFEFE"></path> <path id="xbox-A" d="M1766.3 1084.44C1779.6 1094.66 1788.78 1108.91 1792.3 1125.44C1793.77 1146.52 1791.7 1165.56 1777.44 1182.21C1766.21 1194.65 1751.49 1204.25 1734.48 1205.67C1713.04 1206.64 1696.12 1203.06 1679.48 1188.62C1666.25 1176 1658.44 1159.12 1658 1140.83C1657.85 1122.36 1662.94 1106.29 1675.99 1092.71C1676.75 1091.96 1677.51 1091.21 1678.3 1090.44C1678.99 1089.73 1679.69 1089.02 1680.41 1088.29C1704.05 1065.69 1740.44 1066.14 1766.3 1084.44Z" fill="#FEFEFE"></path> <path id="xbox-B" d="M1894.3 957.436C1907.6 967.658 1916.78 981.915 1920.3 998.436C1921.77 1019.52 1919.7 1038.56 1905.44 1055.21C1894.21 1067.65 1879.49 1077.25 1862.48 1078.67C1841.04 1079.64 1824.12 1076.06 1807.48 1061.62C1794.25 1049 1786.44 1032.12 1786 1013.83C1785.85 995.362 1790.94 979.289 1803.99 965.71C1804.75 964.959 1805.51 964.209 1806.3 963.436C1806.99 962.727 1807.69 962.018 1808.41 961.288C1832.05 938.694 1868.44 939.136 1894.3 957.436Z" fill="#FEFEFE"></path> <path id="xbox-Y" d="M1765.3 827.436C1778.6 837.658 1787.78 851.915 1791.3 868.436C1792.77 889.519 1790.7 908.565 1776.44 925.207C1765.21 937.646 1750.49 947.252 1733.48 948.671C1712.04 949.641 1695.12 946.061 1678.48 931.624C1665.25 919.001 1657.44 902.124 1657 883.827C1656.85 865.362 1661.94 849.289 1674.99 835.71C1675.75 834.959 1676.51 834.209 1677.3 833.436C1677.99 832.727 1678.69 832.018 1679.41 831.288C1703.05 808.694 1739.44 809.136 1765.3 827.436Z" fill="#FEFEFE"></path> <path id="xbox-RB" d="M1593.7 657.734C1594.68 657.73 1594.68 657.73 1595.68 657.725C1597.83 657.721 1599.98 657.734 1602.12 657.749C1602.86 657.752 1603.6 657.755 1604.36 657.758C1618.31 657.819 1632.12 658.584 1646 659.999C1646.99 660.096 1647.99 660.192 1649.01 660.292C1677.99 663.168 1707.28 668.328 1734.99 677.362C1737.26 678.083 1739.56 678.751 1741.85 679.421C1770.2 687.889 1798.67 701.185 1823 717.999C1823.57 718.388 1824.14 718.777 1824.73 719.177C1833.62 725.26 1841.93 731.872 1850 738.999C1850.51 739.444 1851.02 739.889 1851.54 740.347C1867.85 754.687 1880.86 771.076 1893 788.999C1892.67 789.659 1892.34 790.319 1892 790.999C1891.35 790.368 1890.71 789.736 1890.04 789.085C1873.84 773.707 1855.32 762.065 1836 750.999C1834.87 750.345 1834.87 750.345 1833.71 749.677C1805.38 733.417 1773.2 721.677 1741.66 713.685C1738.98 712.994 1736.32 712.26 1733.65 711.515C1717.3 706.989 1700.72 703.836 1684 700.999C1683.25 700.871 1682.49 700.743 1681.72 700.61C1637.37 693.087 1592.91 690.397 1548 688.999C1550.82 686.134 1553.64 683.357 1556.75 680.8C1557.43 680.235 1558.12 679.67 1558.83 679.088C1559.54 678.502 1560.26 677.916 1561 677.312C1561.75 676.701 1562.49 676.091 1563.26 675.461C1584.96 657.75 1584.96 657.75 1593.7 657.734Z" fill="#FCFDFE"></path> <path id="xbox-LB" d="M863.026 657.906C867.433 657.709 871.838 657.568 876.249 657.485C877.685 657.454 879.121 657.412 880.556 657.357C890.77 656.99 897.04 658.533 905 665.001C905.607 665.472 906.214 665.944 906.84 666.43C908.369 667.658 909.842 668.953 911.312 670.251C916.595 674.856 922.025 679.218 927.595 683.472C931.895 686.791 931.895 686.791 933 689.001C932.287 689.029 931.574 689.058 930.839 689.088C879.807 691.048 879.807 691.048 829 696.001C828.182 696.106 827.364 696.212 826.521 696.321C803.073 699.381 779.99 703.465 757 709.001C755.978 709.243 754.956 709.484 753.902 709.734C693.762 724.091 636.863 749.236 590 790.001C590 775.772 614.403 754.675 624 745.001C626.576 742.541 629.246 740.257 632 738.001C632.843 737.27 633.686 736.539 634.555 735.786C697.119 682.123 782.411 661.659 863.026 657.906Z" fill="#FCFDFE"></path> <path id="xbox-Right" d="M1054.87 1267.82C1055.59 1267.82 1056.31 1267.81 1057.05 1267.8C1059.44 1267.78 1061.83 1267.77 1064.22 1267.76C1065.45 1267.75 1065.45 1267.75 1066.7 1267.75C1071.02 1267.73 1075.35 1267.71 1079.68 1267.7C1084.14 1267.69 1088.6 1267.66 1093.06 1267.62C1096.49 1267.59 1099.93 1267.58 1103.37 1267.58C1105.01 1267.58 1106.65 1267.56 1108.3 1267.55C1125.92 1267.36 1125.92 1267.36 1131 1272C1135.27 1276.95 1137.07 1282.45 1138.29 1288.77C1138.45 1289.59 1138.61 1290.41 1138.78 1291.26C1140.31 1299.55 1140.57 1307.75 1140.47 1316.16C1140.44 1318.63 1140.45 1321.1 1140.46 1323.57C1140.44 1338.05 1140.11 1355.21 1130.63 1366.94C1125.67 1370.83 1120.82 1371.25 1114.65 1371.26C1113.94 1371.26 1113.23 1371.26 1112.5 1371.27C1110.17 1371.28 1107.84 1371.27 1105.52 1371.26C1103.89 1371.27 1102.27 1371.27 1100.65 1371.27C1097.25 1371.27 1093.86 1371.27 1090.47 1371.26C1086.11 1371.25 1081.76 1371.26 1077.41 1371.27C1074.06 1371.27 1070.71 1371.27 1067.37 1371.27C1065.76 1371.27 1064.15 1371.27 1062.55 1371.27C1060.31 1371.28 1058.07 1371.27 1055.83 1371.26C1054.56 1371.26 1053.28 1371.25 1051.97 1371.25C1049 1371 1049 1371 1047 1369C1046.75 1367.19 1046.75 1367.19 1046.75 1364.97C1046.75 1364.13 1046.74 1363.28 1046.74 1362.42C1046.75 1361.49 1046.75 1360.56 1046.76 1359.61C1046.76 1358.63 1046.75 1357.66 1046.75 1356.66C1046.75 1353.43 1046.76 1350.19 1046.77 1346.96C1046.77 1344.73 1046.77 1342.49 1046.77 1340.25C1046.77 1335.56 1046.78 1330.87 1046.79 1326.18C1046.81 1320.15 1046.82 1314.12 1046.81 1308.09C1046.81 1303.47 1046.82 1298.85 1046.83 1294.23C1046.83 1292.01 1046.83 1289.79 1046.83 1287.56C1046.84 1284.46 1046.84 1281.36 1046.85 1278.26C1046.85 1277.33 1046.85 1276.4 1046.85 1275.45C1046.89 1267.71 1047.26 1267.88 1054.87 1267.82Z" fill="#FCFDFD"></path> <path id="xbox-Left" d="M872.28 1267.51C872.97 1267.51 873.66 1267.51 874.372 1267.5C876.63 1267.5 878.886 1267.52 881.144 1267.54C882.721 1267.54 884.298 1267.54 885.875 1267.54C889.167 1267.55 892.46 1267.56 895.752 1267.59C899.977 1267.62 904.201 1267.63 908.426 1267.63C911.676 1267.63 914.927 1267.64 918.177 1267.66C919.736 1267.66 921.294 1267.67 922.853 1267.67C925.024 1267.67 927.195 1267.69 929.366 1267.71C930.601 1267.72 931.837 1267.73 933.11 1267.73C935.999 1268 935.999 1268 937.999 1270C938.198 1273.12 938.272 1276.16 938.258 1279.28C938.262 1280.25 938.265 1281.21 938.269 1282.2C938.278 1285.39 938.272 1288.59 938.265 1291.78C938.266 1293.99 938.268 1296.21 938.271 1298.42C938.274 1303.06 938.269 1307.7 938.26 1312.34C938.249 1318.3 938.255 1324.26 938.267 1330.22C938.274 1334.79 938.272 1339.35 938.267 1343.92C938.266 1346.12 938.267 1348.32 938.272 1350.52C938.277 1353.58 938.269 1356.65 938.258 1359.72C938.262 1360.63 938.266 1361.55 938.27 1362.49C938.228 1368.77 938.228 1368.77 935.999 1371C933.104 1371.27 933.104 1371.27 929.35 1371.29C928.667 1371.3 927.984 1371.3 927.28 1371.31C925.014 1371.33 922.749 1371.33 920.484 1371.34C918.909 1371.34 917.334 1371.35 915.76 1371.36C912.454 1371.37 909.149 1371.37 905.844 1371.37C901.615 1371.37 897.388 1371.4 893.16 1371.43C889.905 1371.46 886.651 1371.46 883.396 1371.46C881.838 1371.46 880.279 1371.47 878.721 1371.48C876.536 1371.5 874.352 1371.5 872.166 1371.49C870.924 1371.49 869.682 1371.49 868.403 1371.5C863.038 1370.72 859.988 1368 856.261 1364.22C853.802 1360.72 852.686 1357.56 851.812 1353.44C851.652 1352.73 851.491 1352.02 851.326 1351.29C850.863 1349.2 850.429 1347.1 849.999 1345C849.771 1343.97 849.543 1342.94 849.308 1341.88C845.415 1321.4 845.96 1293.5 855.749 1274.63C860.462 1269.13 865.188 1267.5 872.28 1267.51Z" fill="#FCFDFD"></path> <path d="M1095 1190C1095.58 1190.46 1096.16 1190.92 1096.75 1191.39C1129.89 1218.07 1152.58 1257.35 1157.71 1299.83C1161.34 1345.4 1149.55 1390 1119.65 1425.1C1109.05 1436.69 1098.22 1447.43 1085 1456C1084.34 1456.43 1083.68 1456.86 1083 1457.3C1046.49 1480.66 1002.25 1488.51 959.824 1479.84C931.83 1473.61 907.682 1460.51 886 1442C885.195 1441.32 884.391 1440.64 883.562 1439.94C853.528 1413.96 835.083 1374.71 831.167 1335.51C830.066 1319.02 829.985 1302.09 834 1286C834.171 1285.26 834.343 1284.52 834.52 1283.75C844.338 1241.32 869.783 1204.34 906.719 1180.91C964.715 1145.29 1040.97 1146.82 1095 1190ZM954.562 1168.25C953.361 1168.57 953.361 1168.57 952.136 1168.9C925.79 1176.23 903.878 1190.54 884 1209C883.345 1209.59 882.69 1210.18 882.015 1210.79C870.588 1221.53 862.105 1235.14 855 1249C854.447 1250.08 853.894 1251.15 853.324 1252.26C835.301 1289.38 833.787 1333.87 847.163 1372.71C849.351 1378.7 852.049 1384.36 855 1390C855.594 1391.15 856.188 1392.29 856.801 1393.47C875.431 1427.69 907.561 1456.14 945 1468C951.93 1469.95 958.943 1471.58 966 1473C967.389 1473.28 967.389 1473.28 968.807 1473.57C1006.91 1480.69 1048.19 1471.16 1080.3 1449.9C1112.59 1427.23 1135.44 1396.55 1145.81 1358.31C1146.01 1357.6 1146.2 1356.89 1146.4 1356.16C1149.54 1343.86 1150.42 1331.28 1150.44 1318.63C1150.44 1317.94 1150.44 1317.26 1150.44 1316.55C1150.42 1302.96 1148.52 1290.15 1145 1277C1144.81 1276.28 1144.63 1275.56 1144.43 1274.82C1137.87 1250.42 1123.81 1229.47 1107 1211C1106.29 1210.2 1105.57 1209.41 1104.84 1208.59C1093.59 1196.66 1079.6 1187.29 1065 1180C1064.3 1179.65 1063.61 1179.3 1062.89 1178.94C1054.23 1174.68 1045.46 1171.31 1036.19 1168.63C1034.95 1168.27 1034.95 1168.27 1033.69 1167.9C1021.78 1164.64 1010.12 1163.67 997.834 1163.74C995.568 1163.75 993.303 1163.74 991.037 1163.73C978.607 1163.71 966.592 1164.98 954.562 1168.25Z" fill="#3A7BAD"></path> <path id="xbox-Start" d="M1406.16 972.559C1414.52 979.276 1420.87 989.463 1423 1000C1424.36 1015.07 1422.12 1028.26 1412.99 1040.75C1403.56 1051.86 1391.96 1057.83 1377.45 1059.38C1363.35 1059.86 1350.85 1055.28 1340.49 1045.68C1335.39 1040.31 1331.76 1034.86 1329 1028C1328.68 1027.26 1328.36 1026.51 1328.03 1025.75C1324.25 1015.44 1324.37 1002.53 1328.75 992.477C1329.16 991.66 1329.57 990.842 1330 990C1330.41 989.162 1330.82 988.325 1331.25 987.461C1337.85 975.346 1347.41 968.029 1360 963C1376.45 958.313 1392.75 962.883 1406.16 972.559Z" fill="#FDFDFE"></path> <path id="xbox-Back" d="M1102.37 961.562C1103.3 961.57 1104.22 961.577 1105.18 961.585C1112.1 961.752 1117.84 962.688 1124 966C1124.87 966.447 1125.73 966.894 1126.63 967.355C1136.19 972.673 1141.92 979.389 1147 989C1147.42 989.713 1147.83 990.426 1148.26 991.16C1153.23 1001.05 1152.58 1015.24 1149.37 1025.62C1143.44 1040.32 1134.62 1049.77 1120 1056C1119.18 1056.36 1118.36 1056.72 1117.52 1057.1C1106.27 1061.13 1093.72 1059.82 1083 1055C1079.5 1053.21 1076.23 1051.24 1073 1049C1072.36 1048.56 1071.73 1048.12 1071.07 1047.67C1061.89 1040.59 1055.81 1028.33 1054 1017C1053 1002.64 1055.87 989.504 1065.26 978.301C1075.71 967.329 1087.17 961.388 1102.37 961.562Z" fill="#FDFEFE"></path> <path id="xbox-Up" d="M1033 1187C1036.76 1190.85 1037.49 1193.29 1037.45 1198.63C1037.45 1199.28 1037.45 1199.94 1037.46 1200.61C1037.45 1202.72 1037.42 1204.82 1037.39 1206.93C1037.39 1208.22 1037.38 1209.51 1037.38 1210.84C1037.36 1215.67 1037.3 1220.49 1037.25 1225.31C1037.17 1236.1 1037.08 1246.89 1037 1258C1007.96 1258 978.92 1258 949 1258C948.897 1247.05 948.793 1236.1 948.687 1224.81C948.642 1221.36 948.596 1217.91 948.549 1214.35C948.535 1211.62 948.522 1208.88 948.511 1206.14C948.498 1205.44 948.485 1204.73 948.472 1204C948.435 1201.91 948.43 1199.81 948.432 1197.72C948.421 1196.54 948.41 1195.36 948.398 1194.15C949.18 1190.06 950.824 1188.6 954 1186C957.855 1184.4 961.902 1183.76 966 1183C967.045 1182.79 968.091 1182.59 969.168 1182.38C987.548 1179.33 1016.44 1176.68 1033 1187Z" fill="#FEFEFE"></path> <path id="xbox-Down" d="M949.001 1382C978.041 1382 1007.08 1382 1037 1382C1037.08 1392.44 1037.17 1402.87 1037.25 1413.62C1037.29 1416.91 1037.32 1420.2 1037.36 1423.58C1037.37 1426.19 1037.38 1428.8 1037.39 1431.41C1037.4 1432.09 1037.41 1432.76 1037.42 1433.45C1037.45 1435.45 1037.45 1437.45 1037.45 1439.44C1037.46 1440.57 1037.47 1441.69 1037.48 1442.85C1036.88 1446.78 1035.48 1448.92 1033 1452C1012.21 1463.43 979.612 1459.41 957.645 1453.71C956.454 1453.4 956.454 1453.4 955.238 1453.09C952.157 1451.59 950.893 1449.85 949.001 1447C948.52 1443.93 948.52 1443.93 948.546 1440.47C948.547 1439.15 948.547 1437.83 948.548 1436.47C948.568 1435.08 948.589 1433.68 948.61 1432.29C948.616 1430.38 948.616 1430.38 948.622 1428.44C948.643 1423.69 948.699 1418.94 948.751 1414.19C948.833 1403.57 948.916 1392.94 949.001 1382Z" fill="#FEFEFE"></path> <path d="M1524 1159C1524.79 1159.2 1525.59 1159.4 1526.4 1159.6C1538.39 1162.7 1549.19 1167 1560 1173C1561.62 1173.87 1561.62 1173.87 1563.27 1174.75C1582.5 1185.41 1598.73 1202.24 1610 1221C1610.4 1221.67 1610.81 1222.33 1611.22 1223.02C1628.66 1252.4 1634.36 1288.74 1626 1322C1625.83 1322.69 1625.66 1323.38 1625.48 1324.09C1619.51 1347.56 1608.38 1367.24 1592 1385C1591.31 1385.76 1590.63 1386.52 1589.92 1387.3C1569.4 1408.89 1537.09 1424.68 1507.27 1426.19C1503.91 1426.25 1500.55 1426.28 1497.19 1426.26C1495.13 1426.25 1493.08 1426.26 1491.02 1426.27C1455.26 1426.31 1422.58 1411.6 1397.25 1386.63C1383.07 1372.21 1372.38 1355.25 1366 1336C1365.79 1335.37 1365.57 1334.74 1365.35 1334.09C1360.62 1320.13 1358.66 1307.35 1358.75 1292.56C1358.74 1291.25 1358.73 1289.93 1358.73 1288.58C1358.74 1280.2 1359.43 1272.23 1361 1264C1361.21 1262.89 1361.21 1262.89 1361.43 1261.76C1368.51 1227.34 1390.35 1196.72 1419.56 1177.44C1450.24 1157.93 1488.39 1150.04 1524 1159ZM1396.88 1207.25C1375.02 1232.77 1364.22 1265.54 1366 1299C1369.25 1335.89 1385.28 1367.56 1413.76 1391.48C1428.26 1403.06 1445.56 1411.58 1463.62 1415.69C1464.51 1415.9 1465.4 1416.11 1466.32 1416.33C1498.73 1423.88 1532.95 1417.58 1561.29 1400.41C1590.68 1381.75 1610.99 1352.67 1619.17 1318.93C1621.02 1310.55 1621.19 1302.38 1621.19 1293.81C1621.19 1291.77 1621.21 1289.73 1621.22 1287.68C1621.35 1258.23 1610.27 1230.17 1591 1208C1590.26 1207.12 1589.53 1206.24 1588.77 1205.33C1573.13 1187.24 1552.13 1175.11 1529.38 1168.25C1528.39 1167.95 1528.39 1167.95 1527.39 1167.65C1516.31 1164.48 1505.49 1163.68 1494 1163.75C1492.72 1163.74 1491.45 1163.73 1490.13 1163.73C1453.65 1163.8 1421.46 1180.99 1396.88 1207.25Z" fill="#397BAC"></path> <path d="M835 900.001C835.79 900.568 836.58 901.135 837.395 901.719C851.297 912.232 863.037 925.087 872 940.001C872.403 940.666 872.806 941.332 873.221 942.018C891.489 972.794 896.012 1009.95 887.348 1044.61C882.089 1063.82 873.054 1081.92 860 1097C859.573 1097.5 859.145 1098.01 858.705 1098.52C842.464 1117.53 821.658 1131.23 798 1139.31C797.338 1139.54 796.676 1139.77 795.993 1140.01C783.472 1144.06 770.964 1145.49 757.871 1145.34C755.671 1145.31 753.472 1145.32 751.271 1145.32C743.331 1145.31 735.765 1144.78 728 1143C727.312 1142.86 726.624 1142.72 725.915 1142.57C705.607 1138.38 685.558 1128.76 670 1115C669.148 1114.26 668.296 1113.51 667.418 1112.75C664.915 1110.53 662.45 1108.28 660 1106C659.395 1105.45 658.791 1104.9 658.168 1104.33C642.253 1089.24 632.783 1069.54 626 1049C625.493 1047.52 625.493 1047.52 624.977 1046C621.318 1034.68 620.681 1023.39 620.75 1011.56C620.742 1010.25 620.735 1008.93 620.727 1007.58C620.789 976.239 631.815 946.865 652 923.001C652.654 922.227 652.654 922.227 653.32 921.439C674.916 896.236 707.092 877.973 740.52 875.243C774.458 873.143 807.179 879.531 835 900.001ZM721 887.001C720.349 887.172 719.698 887.343 719.027 887.52C702.925 891.822 687.721 900.321 675 911.001C674.143 911.719 673.286 912.437 672.402 913.176C647.333 934.991 630.83 965.701 628 999.001C625.998 1033.75 635.806 1067.6 659 1094C681.682 1119.35 712.191 1135.76 746.391 1138.17C781.281 1139.85 814.544 1129.08 840.785 1105.89C855.688 1092.34 866.152 1077.28 874.172 1058.9C874.956 1057.1 875.772 1055.32 876.59 1053.54C878.188 1049.53 879.196 1045.58 880.125 1041.38C880.294 1040.64 880.463 1039.9 880.637 1039.14C881.102 1037.1 881.56 1035.05 882 1033C882.179 1032.25 882.357 1031.5 882.542 1030.73C883.122 1027.28 883.182 1023.87 883.203 1020.38C883.209 1019.65 883.215 1018.92 883.22 1018.16C883.23 1016.6 883.236 1015.05 883.24 1013.49C883.25 1011.17 883.281 1008.84 883.312 1006.52C883.405 993.575 881.558 981.437 877.375 969.126C877.123 968.382 876.87 967.637 876.61 966.871C865.147 934.553 840.949 909.634 810.68 894.321C782.865 881.63 750.508 878.672 721 887.001Z" fill="#397BAC"></path> <path id="xbox-LT-Path" d="M879.57 507.649C881.118 507.633 882.665 507.605 884.212 507.567C900.101 507.184 900.101 507.184 905.428 511.385C908.427 514.464 910.907 517.756 913.312 521.312C914.145 522.503 914.145 522.503 914.994 523.718C916.678 526.135 918.341 528.566 920 531C920.952 532.38 921.905 533.761 922.859 535.14C924.657 537.745 926.446 540.355 928.23 542.968C932.183 548.742 936.231 554.449 940.273 560.16C940.725 560.799 941.176 561.438 941.641 562.097C942.565 563.39 943.501 564.674 944.449 565.949C947.961 570.704 947.961 570.704 948.375 573.875C948 576 948 576 947 577C943.984 577.196 940.985 577.332 937.965 577.429C936.037 577.501 934.108 577.573 932.18 577.646C931.162 577.683 930.143 577.72 929.093 577.758C908.965 578.502 889.019 579.751 869 582C867.423 582.171 867.423 582.171 865.814 582.347C841.619 585.017 817.597 589.154 793.826 594.379C790.996 595.001 788.162 595.608 785.328 596.214C774.712 598.521 764.326 601.259 753.953 604.484C750.707 605.491 747.453 606.439 744.172 607.328C695.915 620.421 647.875 640.894 605.379 667.168C597.257 672.176 597.257 672.176 594 673C593.01 672.34 592.02 671.68 591 671C591.486 664.622 593.711 659.648 596.5 653.937C596.951 653.007 597.401 652.076 597.866 651.118C601.709 643.328 605.953 636.072 611 629C611.684 628.035 611.684 628.035 612.383 627.052C619.015 617.789 626.054 609.174 634 601C634.631 600.343 635.261 599.687 635.911 599.01C645.057 589.518 654.354 580.776 665 573C666.151 572.141 667.302 571.283 668.453 570.425C728.099 526.445 806.462 508.226 879.57 507.649ZM791.322 525.474C788.923 526.017 786.519 526.532 784.113 527.046C754.179 533.616 724.575 544.679 698 560C696.355 560.947 696.355 560.947 694.676 561.914C676.641 572.694 660.244 585.574 645 600C643.606 601.312 643.606 601.312 642.184 602.652C628.758 615.657 618.024 631.037 608.5 647.062C608.066 647.789 607.632 648.516 607.185 649.264C606.583 650.295 606.583 650.295 605.969 651.347C605.434 652.26 605.434 652.26 604.889 653.191C603.948 655.106 603.443 656.918 603 659C607.462 657.383 611.46 655.099 615.562 652.75C633.637 642.606 652.172 633.575 671.25 625.5C671.923 625.214 672.596 624.929 673.289 624.635C726.74 602.059 783.561 586.291 841 578C842.146 577.834 843.291 577.668 844.472 577.497C875.116 573.158 906.073 570.975 937 570C935.672 567.221 934.196 564.693 932.453 562.156C931.945 561.414 931.436 560.672 930.912 559.907C930.089 558.715 930.089 558.715 929.25 557.5C928.68 556.67 928.11 555.841 927.523 554.986C922.673 547.941 917.773 540.931 912.847 533.939C912.3 533.162 911.754 532.386 911.191 531.585C910.393 530.454 910.393 530.454 909.579 529.299C908.499 527.727 907.452 526.132 906.433 524.52C902.823 518.496 902.823 518.496 897 515C893.137 514.569 889.321 514.576 885.438 514.625C884.266 514.633 883.094 514.642 881.887 514.651C851.474 515.133 820.971 518.704 791.322 525.474Z" fill="#397BAC"></path> <path id="xbox-RT-Path" d="M1592.31 507.625C1593.67 507.649 1595.02 507.672 1596.38 507.692C1600.25 507.76 1604.13 507.877 1608 508C1608.94 508.024 1609.88 508.048 1610.85 508.072C1682.64 509.963 1759.03 531.184 1816 576C1816.88 576.682 1817.75 577.364 1818.65 578.067C1847.19 600.817 1873.51 631.152 1886 666C1886.19 668.75 1886.19 668.75 1886 671C1885.67 671.33 1885.34 671.66 1885 672C1879.59 671.659 1875.89 670.099 1871.44 667.188C1870.11 666.36 1868.78 665.536 1867.45 664.715C1866.73 664.274 1866.02 663.833 1865.28 663.379C1832.14 643.366 1796.11 628.654 1759.65 615.932C1757.24 615.085 1754.85 614.214 1752.45 613.328C1742.02 609.49 1731.42 606.519 1720.67 603.703C1718.21 603.055 1715.75 602.392 1713.29 601.723C1708.54 600.436 1703.77 599.207 1699 598C1698.11 597.774 1697.22 597.547 1696.31 597.314C1644.39 584.25 1591 578.879 1537.61 577.342C1536.61 577.31 1535.62 577.279 1534.59 577.246C1533.29 577.21 1533.29 577.21 1531.96 577.174C1530 577 1530 577 1529 576C1528.44 572.483 1528.94 571.098 1530.84 568.039C1531.72 566.893 1532.61 565.756 1533.5 564.625C1534.52 563.29 1535.53 561.953 1536.54 560.613C1537.1 559.881 1537.65 559.148 1538.22 558.393C1541.53 553.942 1544.66 549.371 1547.81 544.813C1548.49 543.84 1549.17 542.867 1549.87 541.864C1553.24 537.02 1556.57 532.158 1559.86 527.254C1560.47 526.348 1561.09 525.441 1561.72 524.507C1562.87 522.807 1564.01 521.1 1565.13 519.382C1572.57 508.469 1579.38 507.242 1592.31 507.625ZM1575.15 518.821C1570.22 525.222 1565.62 531.807 1561.08 538.488C1558.86 541.758 1556.6 545 1554.32 548.231C1553.7 549.116 1553.08 550.002 1552.43 550.915C1551.21 552.64 1549.99 554.364 1548.77 556.086C1548.21 556.884 1547.65 557.682 1547.07 558.504C1546.57 559.204 1546.08 559.903 1545.57 560.624C1543.56 563.672 1541.79 566.818 1540 570C1540.58 570.031 1541.15 570.062 1541.74 570.094C1596.53 573.055 1596.53 573.055 1620 576C1621.15 576.14 1622.31 576.281 1623.5 576.425C1649.84 579.664 1675.85 584.592 1701.58 591.13C1704.01 591.748 1706.44 592.358 1708.87 592.964C1729.33 598.064 1749.28 604.085 1769.09 611.305C1770.97 611.991 1772.86 612.671 1774.75 613.352C1792.14 619.657 1809.04 626.773 1825.82 634.532C1828.62 635.825 1831.43 637.099 1834.23 638.367C1846.17 643.82 1857.52 650.228 1868.85 656.836C1871.08 658.122 1871.08 658.122 1874 659C1868.08 639.264 1852.82 621.111 1838.6 606.632C1836.86 604.854 1835.13 603.056 1833.41 601.258C1826.02 593.624 1818.39 586.645 1809.83 580.345C1808.59 579.436 1807.36 578.518 1806.14 577.593C1786.18 562.537 1764.04 551.505 1741 542C1739.79 541.491 1738.57 540.982 1737.32 540.457C1734.23 539.219 1731.14 538.087 1728 537C1727.26 536.743 1726.52 536.486 1725.75 536.221C1683.67 521.803 1638.12 514.984 1593.69 514.75C1592.59 514.741 1591.49 514.732 1590.36 514.722C1589.34 514.726 1588.32 514.73 1587.26 514.735C1585.92 514.738 1585.92 514.738 1584.54 514.741C1580.72 515.131 1577.9 516.113 1575.15 518.821Z" fill="#397BAC"></path> <path d="M1890.29 953.058C1906.45 964.642 1917.13 980.164 1920.69 999.819C1922.18 1010.35 1921.78 1021.01 1918 1031C1917.65 1031.98 1917.3 1032.97 1916.93 1033.98C1910.94 1049.59 1899.89 1062.31 1885 1070C1884.34 1070.38 1883.67 1070.75 1882.99 1071.14C1868.58 1078.99 1851.71 1079.47 1836 1076C1819.02 1070.91 1804.46 1060.28 1795 1045.19C1786.5 1029.33 1782.76 1009.49 1788 992C1793.44 974.219 1804.49 960.235 1820.51 950.793C1842.82 939.339 1868.91 939.515 1890.29 953.058ZM1806 973C1795.07 986.96 1792.52 1001.78 1794 1019C1795.86 1033.72 1803.42 1046.64 1814.67 1056.29C1829.02 1067.09 1844.11 1071.78 1862 1070C1878.62 1067.09 1892.91 1058.55 1902.75 1044.87C1912.24 1031.06 1915.53 1013.33 1912.62 996.831C1908.68 980.53 1898.59 967.696 1884.69 958.625C1857.69 943.187 1826.12 949.646 1806 973Z" fill="#3A7CAD"></path> <path d="M1758.25 822.301C1762.85 825.147 1766.96 828.415 1771 832C1771.94 832.796 1771.94 832.796 1772.89 833.609C1783.98 843.716 1791.6 860.008 1792.37 874.996C1792.84 895.951 1788.15 913.118 1773.38 928.687C1759 942.682 1741.66 949.729 1721.65 949.47C1704.11 948.761 1689.26 941.381 1677 929C1676.22 928.251 1675.44 927.502 1674.63 926.73C1663.06 914.97 1657.29 898.127 1656.81 881.812C1657.21 860.63 1665.9 844.168 1680.94 829.582C1688.67 822.756 1698.03 818.391 1708 816C1709.08 815.654 1710.15 815.309 1711.26 814.953C1726.86 810.979 1744.33 814.8 1758.25 822.301ZM1681 840C1668.98 854.007 1663.63 869.574 1664.79 887.919C1666.2 902.089 1673.43 916.474 1684 926C1699.53 938.144 1714.34 942.644 1734 941C1748.03 938.922 1759.14 931.844 1769 922C1769.58 921.435 1770.15 920.871 1770.75 920.289C1780.51 909.887 1784.59 895.629 1784.44 881.687C1784.43 880.676 1784.42 879.665 1784.41 878.623C1784.04 862.781 1778.07 850.06 1767.12 838.562C1755.58 827.672 1740.61 821.574 1724.75 821.687C1723.92 821.693 1723.08 821.699 1722.22 821.704C1705.82 822.025 1692.76 828.654 1681 840Z" fill="#3A7CAD"></path> <path d="M1764.83 1083.92C1778.69 1094.57 1788.52 1108.95 1791.59 1126.34C1793.75 1145.63 1790.47 1163.95 1779 1180C1767.64 1193.88 1752.1 1203.97 1734 1206C1713.3 1207.28 1695.42 1203.18 1679.39 1189.24C1666.79 1177.44 1658.36 1162.07 1657.76 1144.62C1657.37 1123.11 1657.37 1123.11 1662 1113C1662.71 1111.4 1662.71 1111.4 1663.44 1109.76C1671.8 1092.67 1686.29 1080.71 1704 1074C1724.53 1067.58 1747.3 1072.03 1764.83 1083.92ZM1716.03 1079.18C1702.4 1080.67 1690.31 1088.26 1681 1098C1680.18 1098.77 1680.18 1098.77 1679.34 1099.56C1671.35 1107.72 1665.74 1120.72 1665 1132C1664.91 1133.13 1664.82 1134.25 1664.72 1135.41C1664.01 1151.96 1669.49 1166.42 1680.06 1179.06C1691.96 1191.82 1707.48 1198.78 1724.94 1199.44C1740.85 1198.95 1756.63 1192.07 1768 1181C1779.13 1168.44 1785.74 1152.71 1785.22 1135.79C1784.9 1131.68 1784.19 1127.95 1783 1124C1782.69 1122.93 1782.39 1121.86 1782.07 1120.75C1777.21 1105.45 1766.96 1093.31 1752.98 1085.39C1740.75 1079.7 1729.43 1078.36 1716.03 1079.18Z" fill="#397BAC"></path> <path d="M1637 956.001C1650.3 966.222 1659.49 980.479 1663 997.001C1664.48 1018.08 1662.41 1037.13 1648.14 1053.77C1636.92 1066.21 1622.19 1075.82 1605.18 1077.24C1583.74 1078.21 1566.82 1074.63 1550.19 1060.19C1536.96 1047.57 1529.14 1030.69 1528.71 1012.39C1528.55 993.927 1533.64 977.853 1546.69 964.274C1547.46 963.524 1548.22 962.773 1549 962.001C1549.7 961.292 1550.4 960.583 1551.12 959.852C1574.75 937.259 1611.14 937.7 1637 956.001ZM1550.55 970.793C1540.35 983.822 1534.21 999.237 1536 1016C1538.97 1033.43 1546.66 1048.24 1560.8 1059.16C1566.52 1062.97 1572.47 1065.86 1579 1068C1579.67 1068.23 1580.34 1068.45 1581.03 1068.68C1596.73 1073.06 1612.61 1069.54 1626.63 1062.02C1631.74 1058.96 1635.86 1055.26 1640 1051C1640.55 1050.48 1641.1 1049.97 1641.66 1049.43C1651.29 1039.58 1655.94 1025.22 1656.31 1011.81C1656.01 994.135 1650.11 979.812 1638.08 966.95C1626.58 955.84 1612 950.27 1596.12 949.563C1578.65 950.1 1562.11 957.614 1550.55 970.793Z" fill="#387AAC"></path> <path d="M1038.44 1181.25C1043.33 1186.5 1044.38 1191.43 1044.37 1198.46C1044.38 1199.17 1044.38 1199.88 1044.38 1200.61C1044.39 1202.94 1044.38 1205.26 1044.36 1207.58C1044.36 1209.2 1044.36 1210.82 1044.37 1212.45C1044.37 1215.83 1044.36 1219.22 1044.34 1222.61C1044.31 1226.95 1044.31 1231.3 1044.32 1235.64C1044.32 1238.99 1044.32 1242.33 1044.31 1245.67C1044.3 1247.28 1044.3 1248.88 1044.3 1250.48C1044.3 1252.72 1044.29 1254.95 1044.28 1257.18C1044.27 1259.09 1044.27 1259.09 1044.26 1261.03C1044 1264 1044 1264 1042 1266C1038.88 1266.2 1035.84 1266.28 1032.72 1266.27C1031.75 1266.28 1030.79 1266.28 1029.8 1266.29C1026.61 1266.3 1023.41 1266.3 1020.22 1266.3C1018.01 1266.3 1015.8 1266.31 1013.58 1266.31C1008.94 1266.32 1004.3 1266.32 999.662 1266.31C993.703 1266.31 987.744 1266.33 981.785 1266.35C977.216 1266.36 972.648 1266.36 968.079 1266.36C965.881 1266.36 963.683 1266.37 961.486 1266.38C958.418 1266.39 955.351 1266.38 952.284 1266.37C950.911 1266.38 950.911 1266.38 949.51 1266.39C948.677 1266.39 947.844 1266.38 946.986 1266.37C946.261 1266.37 945.535 1266.37 944.787 1266.37C943.001 1266 943.001 1266 941.001 1263C940.733 1259.95 940.733 1259.95 940.71 1256.16C940.704 1255.47 940.697 1254.78 940.69 1254.06C940.671 1251.78 940.667 1249.49 940.665 1247.2C940.658 1245.61 940.652 1244.02 940.645 1242.42C940.633 1239.08 940.629 1235.74 940.63 1232.4C940.63 1228.12 940.603 1223.85 940.569 1219.58C940.546 1216.29 940.542 1213 940.543 1209.7C940.541 1208.13 940.532 1206.56 940.517 1204.98C940.497 1202.77 940.503 1200.56 940.515 1198.36C940.512 1197.1 940.509 1195.85 940.506 1194.55C941.245 1189.24 943.425 1185.58 947.251 1181.75C967.85 1168.64 1018.4 1166.44 1038.44 1181.25ZM966.001 1183C964.883 1183.21 963.766 1183.41 962.614 1183.62C956.472 1184.93 953.137 1186.03 949.001 1191C948.283 1194.2 948.283 1194.2 948.433 1197.72C948.433 1198.38 948.432 1199.05 948.431 1199.73C948.435 1201.87 948.473 1204.01 948.513 1206.14C948.518 1207.46 948.523 1208.77 948.528 1210.12C948.554 1215.02 948.624 1219.91 948.688 1224.81C948.791 1235.76 948.895 1246.72 949.001 1258C978.041 1258 1007.08 1258 1037 1258C1037.1 1247.23 1037.21 1236.47 1037.31 1225.37C1037.38 1220.29 1037.38 1220.29 1037.45 1215.1C1037.47 1212.41 1037.48 1209.71 1037.49 1207.02C1037.5 1206.33 1037.52 1205.63 1037.53 1204.92C1038.04 1196 1038.04 1196 1034.59 1188.13C1019.06 1175.34 984.382 1179.37 966.001 1183Z" fill="#3B7CAD"></path> <path d="M949.436 1373.73C950.34 1373.73 951.244 1373.74 952.176 1373.74C953.128 1373.74 954.079 1373.73 955.059 1373.73C958.216 1373.72 961.372 1373.73 964.528 1373.74C966.715 1373.73 968.902 1373.73 971.09 1373.73C975.679 1373.73 980.268 1373.73 984.857 1373.74C990.746 1373.75 996.636 1373.74 1002.53 1373.73C1007.04 1373.73 1011.56 1373.73 1016.08 1373.73C1018.25 1373.73 1020.42 1373.73 1022.6 1373.73C1025.63 1373.72 1028.66 1373.73 1031.7 1373.74C1032.6 1373.74 1033.5 1373.73 1034.43 1373.73C1035.26 1373.74 1036.08 1373.74 1036.93 1373.75C1038.01 1373.75 1038.01 1373.75 1039.11 1373.75C1041 1374 1041 1374 1044 1376C1044.4 1378.96 1044.4 1378.96 1044.42 1382.8C1044.43 1383.5 1044.44 1384.2 1044.45 1384.92C1044.47 1387.24 1044.47 1389.56 1044.47 1391.88C1044.48 1393.5 1044.48 1395.11 1044.49 1396.73C1044.51 1400.12 1044.51 1403.51 1044.5 1406.9C1044.5 1411.23 1044.53 1415.56 1044.57 1419.89C1044.59 1423.23 1044.6 1426.57 1044.59 1429.91C1044.59 1431.51 1044.6 1433.1 1044.62 1434.7C1044.78 1451.09 1044.78 1451.09 1039 1457C1032.89 1461.81 1025.51 1462.61 1018 1464C1017.27 1464.17 1016.53 1464.34 1015.78 1464.52C1012.27 1465.13 1008.81 1465.22 1005.26 1465.27C1004.51 1465.29 1003.76 1465.3 1002.99 1465.31C989.232 1465.5 975.657 1465.66 962.126 1462.81C961.184 1462.62 960.243 1462.42 959.273 1462.22C952.123 1460.5 947.034 1458.09 942.933 1451.86C940.812 1448.07 940.505 1445 940.515 1440.63C940.511 1439.93 940.507 1439.23 940.503 1438.51C940.496 1436.22 940.517 1433.93 940.54 1431.64C940.542 1430.04 940.543 1428.44 940.543 1426.84C940.546 1423.5 940.562 1420.16 940.589 1416.82C940.623 1412.54 940.631 1408.25 940.629 1403.97C940.63 1400.67 940.641 1397.37 940.655 1394.08C940.662 1392.49 940.666 1390.91 940.667 1389.33C940.671 1387.13 940.689 1384.93 940.71 1382.73C940.718 1381.47 940.725 1380.22 940.733 1378.93C941.258 1373.19 944.43 1373.76 949.436 1373.73ZM949.001 1382C948.918 1392.62 948.836 1403.24 948.751 1414.19C948.714 1417.54 948.678 1420.88 948.64 1424.33C948.629 1426.99 948.619 1429.64 948.61 1432.29C948.6 1432.98 948.589 1433.67 948.578 1434.37C948.549 1436.4 948.547 1438.44 948.547 1440.47C948.538 1441.61 948.529 1442.75 948.52 1443.93C949.109 1447.69 950.349 1449.32 953.001 1452C971.767 1460.5 997.553 1459.73 1017.44 1456.75C1018.19 1456.64 1018.94 1456.53 1019.71 1456.42C1025.61 1455.4 1031.93 1453.85 1035.59 1448.82C1037.26 1445.48 1037.36 1443.29 1037.34 1439.56C1037.34 1437.61 1037.34 1437.61 1037.34 1435.62C1037.33 1434.25 1037.31 1432.88 1037.29 1431.51C1037.29 1430.26 1037.29 1429.01 1037.28 1427.72C1037.27 1423.04 1037.23 1418.36 1037.19 1413.69C1037.13 1403.23 1037.06 1392.77 1037 1382C1007.96 1382 978.921 1382 949.001 1382Z" fill="#3A7CAD"></path> <path d="M1054.87 1267.82C1055.59 1267.82 1056.31 1267.81 1057.05 1267.8C1059.44 1267.78 1061.83 1267.77 1064.22 1267.76C1065.45 1267.75 1065.45 1267.75 1066.7 1267.75C1071.02 1267.73 1075.35 1267.71 1079.68 1267.7C1084.14 1267.69 1088.6 1267.66 1093.06 1267.62C1096.49 1267.59 1099.93 1267.58 1103.37 1267.58C1105.01 1267.58 1106.65 1267.56 1108.3 1267.55C1125.92 1267.36 1125.92 1267.36 1131 1272C1135.27 1276.95 1137.07 1282.45 1138.29 1288.77C1138.45 1289.59 1138.61 1290.41 1138.78 1291.26C1140.31 1299.55 1140.57 1307.75 1140.47 1316.16C1140.44 1318.63 1140.45 1321.1 1140.46 1323.57C1140.44 1338.05 1140.11 1355.21 1130.63 1366.94C1125.67 1370.83 1120.82 1371.25 1114.65 1371.26C1113.94 1371.26 1113.23 1371.26 1112.5 1371.27C1110.17 1371.28 1107.84 1371.27 1105.52 1371.26C1103.89 1371.27 1102.27 1371.27 1100.65 1371.27C1097.25 1371.27 1093.86 1371.27 1090.47 1371.26C1086.11 1371.25 1081.76 1371.26 1077.41 1371.27C1074.06 1371.27 1070.71 1371.27 1067.37 1371.27C1065.76 1371.27 1064.15 1371.27 1062.55 1371.27C1060.31 1371.28 1058.07 1371.27 1055.83 1371.26C1054.56 1371.26 1053.28 1371.25 1051.97 1371.25C1049 1371 1049 1371 1047 1369C1046.75 1367.19 1046.75 1367.19 1046.75 1364.97C1046.75 1364.13 1046.74 1363.28 1046.74 1362.42C1046.75 1361.49 1046.75 1360.56 1046.76 1359.61C1046.76 1358.63 1046.75 1357.66 1046.75 1356.66C1046.75 1353.43 1046.76 1350.19 1046.77 1346.96C1046.77 1344.73 1046.77 1342.49 1046.77 1340.25C1046.77 1335.56 1046.78 1330.87 1046.79 1326.18C1046.81 1320.15 1046.82 1314.12 1046.81 1308.09C1046.81 1303.47 1046.82 1298.85 1046.83 1294.23C1046.83 1292.01 1046.83 1289.79 1046.83 1287.56C1046.84 1284.46 1046.84 1281.36 1046.85 1278.26C1046.85 1277.33 1046.85 1276.4 1046.85 1275.45C1046.89 1267.71 1047.26 1267.88 1054.87 1267.82ZM1054 1275C1054 1304.37 1054 1333.74 1054 1364C1070.43 1364.09 1070.43 1364.09 1087.19 1364.19C1090.64 1364.21 1094.09 1364.24 1097.65 1364.27C1100.38 1364.28 1103.12 1364.29 1105.86 1364.29C1106.56 1364.3 1107.27 1364.31 1108 1364.32C1110.09 1364.34 1112.19 1364.34 1114.28 1364.34C1115.46 1364.35 1116.64 1364.35 1117.86 1364.36C1121.36 1363.96 1123.21 1363.13 1126 1361C1138.18 1338.99 1134.89 1304.95 1128.39 1281.67C1126.53 1278.09 1124.51 1276.95 1121 1275C1117.7 1274.43 1117.7 1274.43 1114.17 1274.54C1113.5 1274.54 1112.84 1274.54 1112.15 1274.54C1110.02 1274.55 1107.89 1274.58 1105.76 1274.61C1104.45 1274.61 1103.14 1274.62 1101.79 1274.62C1096.9 1274.64 1092.01 1274.7 1087.13 1274.75C1070.73 1274.87 1070.73 1274.87 1054 1275Z" fill="#3578AA"></path> <path d="M872.28 1267.51C872.97 1267.51 873.66 1267.51 874.372 1267.5C876.63 1267.5 878.886 1267.52 881.144 1267.54C882.721 1267.54 884.298 1267.54 885.875 1267.54C889.167 1267.55 892.46 1267.56 895.752 1267.59C899.977 1267.62 904.201 1267.63 908.426 1267.63C911.676 1267.63 914.927 1267.64 918.177 1267.66C919.736 1267.66 921.294 1267.67 922.853 1267.67C925.024 1267.67 927.195 1267.69 929.366 1267.71C930.601 1267.72 931.837 1267.73 933.11 1267.73C935.999 1268 935.999 1268 937.999 1270C938.198 1273.12 938.272 1276.16 938.258 1279.28C938.262 1280.25 938.265 1281.21 938.269 1282.2C938.278 1285.39 938.272 1288.59 938.265 1291.78C938.266 1293.99 938.268 1296.21 938.271 1298.42C938.274 1303.06 938.269 1307.7 938.26 1312.34C938.249 1318.3 938.255 1324.26 938.267 1330.22C938.274 1334.79 938.272 1339.35 938.267 1343.92C938.266 1346.12 938.267 1348.32 938.272 1350.52C938.277 1353.58 938.269 1356.65 938.258 1359.72C938.262 1360.63 938.266 1361.55 938.27 1362.49C938.228 1368.77 938.228 1368.77 935.999 1371C933.104 1371.27 933.104 1371.27 929.35 1371.29C928.667 1371.3 927.984 1371.3 927.28 1371.31C925.014 1371.33 922.749 1371.33 920.484 1371.34C918.909 1371.34 917.334 1371.35 915.76 1371.36C912.454 1371.37 909.149 1371.37 905.844 1371.37C901.615 1371.37 897.388 1371.4 893.16 1371.43C889.905 1371.46 886.651 1371.46 883.396 1371.46C881.838 1371.46 880.279 1371.47 878.721 1371.48C876.536 1371.5 874.352 1371.5 872.166 1371.49C870.924 1371.49 869.682 1371.49 868.403 1371.5C863.038 1370.72 859.988 1368 856.261 1364.22C853.802 1360.72 852.686 1357.56 851.812 1353.44C851.652 1352.73 851.491 1352.02 851.326 1351.29C850.863 1349.2 850.429 1347.1 849.999 1345C849.771 1343.97 849.543 1342.94 849.308 1341.88C845.415 1321.4 845.96 1293.5 855.749 1274.63C860.462 1269.13 865.188 1267.5 872.28 1267.51ZM861.999 1279C860.748 1280.81 860.748 1280.81 860.23 1282.8C860.01 1283.5 859.79 1284.2 859.563 1284.92C853.543 1307.16 852.095 1337.38 861.261 1358.97C864.195 1362.4 867.632 1363.84 872.075 1364.36C873.163 1364.35 874.251 1364.35 875.372 1364.34C877.259 1364.34 877.259 1364.34 879.184 1364.34C880.492 1364.32 881.8 1364.31 883.148 1364.29C884.967 1364.29 884.967 1364.29 886.823 1364.28C891.34 1364.27 895.857 1364.23 900.374 1364.19C910.481 1364.13 920.587 1364.06 930.999 1364C930.999 1334.63 930.999 1305.26 930.999 1275C920.728 1274.92 910.457 1274.84 899.874 1274.75C896.64 1274.71 893.405 1274.68 890.073 1274.64C887.504 1274.63 884.935 1274.62 882.366 1274.61C881.374 1274.59 881.374 1274.59 880.361 1274.58C870.264 1274.12 870.264 1274.12 861.999 1279Z" fill="#3578AB"></path> <path d="M1102.37 961.562C1103.3 961.57 1104.22 961.577 1105.18 961.585C1112.1 961.752 1117.84 962.688 1124 966C1124.87 966.447 1125.73 966.894 1126.63 967.355C1136.19 972.673 1141.92 979.389 1147 989C1147.42 989.713 1147.83 990.426 1148.26 991.16C1153.23 1001.05 1152.58 1015.24 1149.37 1025.62C1143.44 1040.32 1134.62 1049.77 1120 1056C1119.18 1056.36 1118.36 1056.72 1117.52 1057.1C1106.27 1061.13 1093.72 1059.82 1083 1055C1079.5 1053.21 1076.23 1051.24 1073 1049C1072.36 1048.56 1071.73 1048.12 1071.07 1047.67C1061.89 1040.59 1055.81 1028.33 1054 1017C1053 1002.64 1055.87 989.504 1065.26 978.301C1075.71 967.329 1087.17 961.388 1102.37 961.562ZM1070.86 983.652C1062.82 993.802 1060.57 1005.35 1062 1018C1064.67 1028.89 1070.41 1038.27 1079.73 1044.65C1090.8 1051.24 1101.29 1052.88 1113.78 1050.18C1124.22 1046.93 1131.59 1040.77 1138 1032C1139.49 1029.07 1139.49 1029.07 1140.69 1026C1141.1 1024.99 1141.52 1023.98 1141.95 1022.94C1145.38 1013.36 1144.92 1003.35 1141 994C1134.51 980.904 1125.93 974.832 1112.44 969.625C1096.05 966.646 1082.25 971.827 1070.86 983.652Z" fill="#3A7BAD"></path> <path d="M1406.16 972.559C1414.52 979.276 1420.87 989.463 1423 1000C1424.36 1015.07 1422.12 1028.26 1412.99 1040.75C1403.56 1051.86 1391.96 1057.83 1377.45 1059.38C1363.35 1059.86 1350.85 1055.28 1340.49 1045.68C1335.39 1040.31 1331.76 1034.86 1329 1028C1328.68 1027.26 1328.36 1026.51 1328.03 1025.75C1324.25 1015.44 1324.37 1002.53 1328.75 992.477C1329.16 991.66 1329.57 990.842 1330 990C1330.41 989.162 1330.82 988.325 1331.25 987.461C1337.85 975.346 1347.41 968.029 1360 963C1376.45 958.313 1392.75 962.883 1406.16 972.559ZM1343.12 983.016C1334.49 994.021 1332.61 1005.27 1334 1019C1336.67 1029.51 1343.07 1038.82 1352 1045C1362.73 1051.13 1373.27 1052.74 1385.44 1050.32C1396.38 1046.95 1405.68 1039.74 1411.32 1029.63C1412.31 1027.45 1413.18 1025.26 1414 1023C1414.41 1022.07 1414.82 1021.14 1415.25 1020.19C1417.8 1009.33 1415.69 998.485 1410.37 988.813C1404.21 979.272 1394.61 972.255 1383.55 969.36C1367.67 967.126 1354.21 971.139 1343.12 983.016Z" fill="#397BAC"></path> <path id="xbox-RAnalog" d="M1552.74 1210.16C1573.62 1227.49 1589.33 1249.67 1592.22 1277.23C1593.1 1290.66 1593.31 1304.29 1589.22 1317.23C1588.87 1318.38 1588.52 1319.53 1588.16 1320.71C1584.16 1332.77 1578.49 1343.57 1570.22 1353.23C1569.58 1354.01 1568.94 1354.8 1568.27 1355.61C1553.45 1373.07 1531.1 1386.09 1508.21 1388.94C1475.7 1391.3 1449.97 1384.19 1425.04 1362.98C1406.55 1345.62 1395.02 1320.83 1394 1295.53C1393.73 1284.74 1394.69 1274.71 1397.22 1264.23C1397.42 1263.35 1397.61 1262.48 1397.81 1261.58C1403.92 1237.7 1422.03 1216.45 1442.86 1204C1476.84 1184.6 1521.43 1185.88 1552.74 1210.16Z" fill="#FEFEFE"></path> <path id="xbox-RAnalog-Path" d="M1490.26 1183.04C1492.32 1183.04 1494.38 1183.02 1496.44 1183C1508.01 1182.95 1518.63 1184.17 1529.47 1188.29C1530.28 1188.59 1531.09 1188.9 1531.92 1189.21C1545.83 1194.65 1557.28 1202.13 1568.22 1212.23C1568.89 1212.81 1569.55 1213.39 1570.23 1213.99C1589.11 1231.42 1600.44 1259.31 1601.51 1284.57C1602.28 1316.1 1591.27 1343.6 1569.77 1366.73C1548.67 1387.43 1520.41 1398.43 1490.94 1398.31C1465.86 1397.54 1440.62 1388.57 1422.22 1371.23C1421.71 1370.76 1421.2 1370.29 1420.67 1369.81C1401.28 1352.04 1387.33 1326.94 1386.08 1300.26C1385.06 1266.24 1393.26 1238.93 1416.69 1213.81C1436.02 1193.88 1462.71 1183.04 1490.26 1183.04ZM1419.4 1223.21C1400.07 1245.59 1392.7 1271.13 1394.22 1300.23C1396.06 1320.49 1405.04 1339.93 1418.22 1355.23C1418.75 1355.9 1419.28 1356.57 1419.83 1357.27C1430.1 1369.98 1446.72 1380.32 1462.22 1385.23C1463.96 1385.78 1463.96 1385.78 1465.74 1386.35C1491.88 1393.93 1519.98 1389.27 1543.6 1376.48C1567.23 1362.18 1583.1 1340.04 1590.46 1313.52C1596.68 1286.65 1591.62 1259.12 1577.18 1235.94C1575.29 1233.26 1573.33 1230.73 1571.22 1228.23C1570.14 1226.94 1570.14 1226.94 1569.04 1225.62C1552.49 1206.64 1529.49 1193.04 1504.04 1190.97C1471.29 1189.44 1442.02 1198.72 1419.4 1223.21Z" fill="#397BAC"></path> <path id="xbox-LAnalog" d="M815.945 928.898C837.37 946.51 853.5 969.048 856.466 997.044C857.368 1010.69 857.577 1024.54 853.387 1037.69C853.026 1038.86 852.665 1040.03 852.292 1041.24C848.195 1053.49 842.368 1064.46 833.888 1074.27C833.228 1075.07 832.568 1075.87 831.888 1076.7C816.676 1094.43 793.74 1107.67 770.246 1110.56C736.886 1112.96 710.483 1105.74 684.892 1084.18C665.918 1066.55 654.085 1041.36 653.046 1015.64C652.766 1004.68 653.75 994.488 656.349 983.834C656.548 982.946 656.746 982.058 656.951 981.143C663.218 956.882 681.811 935.286 703.183 922.634C738.056 902.925 783.819 904.22 815.945 928.898Z" fill="#FEFEFE"></path> <path id="xbox-LAnalog-Path" d="M752.261 902.041C754.321 902.039 756.381 902.021 758.442 902.002C770.008 901.95 780.632 903.167 791.473 907.289C792.279 907.593 793.086 907.898 793.917 908.212C807.827 913.649 819.277 921.133 830.223 931.226C830.885 931.808 831.548 932.389 832.231 932.988C851.107 950.416 862.435 978.313 863.508 1003.57C864.281 1035.1 853.266 1062.6 831.766 1085.73C810.673 1106.43 782.406 1117.43 752.939 1117.31C727.861 1116.54 702.617 1107.57 684.223 1090.23C683.711 1089.76 683.198 1089.29 682.671 1088.81C663.278 1071.04 649.332 1045.94 648.084 1019.26C647.06 985.242 655.261 957.931 678.688 932.809C698.017 912.883 724.71 902.038 752.261 902.041ZM681.403 942.207C662.069 964.585 654.702 990.134 656.223 1019.23C658.065 1039.49 667.038 1058.93 680.223 1074.23C680.753 1074.9 681.283 1075.57 681.828 1076.27C692.102 1088.98 708.724 1099.32 724.223 1104.23C725.963 1104.78 725.963 1104.78 727.739 1105.35C753.876 1112.93 781.976 1108.27 805.598 1095.48C829.225 1081.18 845.1 1059.04 852.461 1032.52C858.684 1005.65 853.619 978.122 839.176 954.941C837.292 952.262 835.329 949.734 833.223 947.226C832.142 945.938 832.142 945.938 831.039 944.625C814.493 925.64 791.494 912.036 766.039 909.967C733.29 908.436 704.023 917.718 681.403 942.207Z" fill="#397BAC"></path> </g> <defs> <clipPath id="clip0_1046_64"> <rect width="2481" height="2481" fill="white"></rect> </clipPath> </defs> </svg>